<svg xmlns="http://www.w3.org/2000/svg" viewBox="0 0 928 358.269">
	<g>
		<g>
			<path fill-rule="evenodd" clip-rule="evenodd" fill="#729E40" stroke="#4F2A0B" stroke-width="2" stroke-miterlimit="10" d="
				M309.079,206.863c-28.155,0.207-103.608-10.791-131.718-10.48c-35.477,0.369-22.193,12.518-57.43,13.386
				c-13.939,0.355-26.408,1.393-39.877,2.204c-9.086,0.802-16.772-0.641-25.187,0.728c-7.429,1.311-13.253,2.499-19.482,4.334
				c-11.026,3.448-20.932,6.365-25.529,11.102c-3.888,4.569,0.242,10.819,2.108,15.572c2.604,5.067,7.218,8.753,16.3,13.032
				c6.271,2.664,12.526,4.82,19.399,6.615c-10.634,12.629-19.846,55.506,51.88,58.754c41.147,23.02,135.423,19.455,192.81,23.831
				c49.715,3.792,91.747-5.416,103.46-7.583c17.489-3.56,183.404,15.708,204.231,1.084c114.208,14.082,214.309,12.39,278.803-17.873
				c27.544-22.749,13.072-73.259,8.488-76.802c-3.015-2.14-6.133-3.979-9.708-5.657c10.897-1.847,18.44-3.701,26.729-6.707
				c6.629-2.566,10.581-4.835,14-7.982c3.718-3.837,4.521-6.943,2.724-10.966c-1.911-3.437-4.891-5.968-10.546-8.963
				c-4.107-2.071-8.17-3.655-13.688-5.343c-7.834-2.282-14.693-3.761-23.965-5.367c-27.549-4.102-49.871-4.349-79.432-4.482
				c-0.523-0.032-5.271,0.021-6.182,0.021c-28.559,0.113-56.777,0.746-85.226,1.385c-71.901,1.563-143.18,5.032-214.632,7.551
				c-3.34,0.108-20.201,0.672-40.803,1.41c-7.104-1.757-19.544-1.757-27.736-1.548c-27.411,0.732-59.682,1.822-86.277,3.886
				c-4.819,0.396-10.259,1.544-14.57,2.295C314.576,204.88,311.798,205.996,309.079,206.863z"/>
			<g>
				<path fill-rule="evenodd" clip-rule="evenodd" fill="#FCC78E" d="M424.87,163.83c0.022-0.172-0.007-0.338-0.085-0.489
					c-0.208-0.238-0.408-0.475-0.514-0.778c0.036-0.157,0.017-0.307-0.059-0.439c-0.372-0.381-0.282-0.952-0.555-1.374
					c0.032-0.167,0.016-0.321-0.062-0.479c-0.498-1.405-0.498-2.961-1.227-4.302c0-1.436,0-2.871,0-4.305
					c0.724-0.655,1.015-1.497,1.176-2.427c0.82-4.74,2.978-8.813,5.972-12.542c2.634-3.282,5.733-6.085,8.665-9.065
					c0.557-0.575,1.111-1.234,2.036-1.234c0.931-0.463,1.875-0.514,2.844-0.102c1.648,1.395,3.415,2.618,5.42,3.422
					c4.408,1.767,6.942,5.285,8.664,9.441c1.011,2.445,1.913,4.938,2.994,7.35c-0.413,1.59-1.786,2.428-2.804,3.522
					c-1.635,1.762-1.849,3.451-0.315,5.42c2.76,3.548,5.798,6.79,9.427,9.458c0.657,2.308,0.781,4.811,2.684,6.64
					c0.438,0.425,0.599,1.303,0.162,1.715c-2.575,2.418-2.491,6.575-5.66,8.583c-5.305,2.587-10.767,2.994-16.377,1.171
					c-1.776-0.579-3.544-1.009-5.403-0.401c-0.924-0.038-0.51-1.068-1.028-1.4l-0.013-0.005c-0.303-0.4-0.899-0.266-1.197-0.673
					l0.026,0.032c-0.238-0.174-0.427-0.401-0.661-0.569l-0.025-0.024c-0.146-0.201-0.336-0.368-0.549-0.499
					c-0.151-0.104-0.324-0.154-0.511-0.162c-0.301-0.14-0.543-0.349-0.738-0.619l0.025,0.023c-0.246-0.176-0.459-0.39-0.644-0.636
					l0.023,0.026c-0.239-0.18-0.44-0.402-0.648-0.61l0.004,0.008c-0.209-0.209-0.413-0.412-0.624-0.612h0.001
					c-0.202-0.212-0.408-0.422-0.618-0.619l0,0c-0.197-0.212-0.399-0.414-0.614-0.615h0.002c-0.2-0.211-0.406-0.414-0.617-0.613l0,0
					c-0.198-0.213-0.402-0.418-0.613-0.613l0,0c-0.201-0.217-0.406-0.417-0.618-0.621l0,0c-0.199-0.209-0.405-0.418-0.613-0.613l0,0
					c-0.201-0.211-0.409-0.417-0.613-0.629l0.009,0.008c-0.211-0.209-0.435-0.41-0.607-0.65l0.021,0.026
					c-0.245-0.187-0.459-0.397-0.639-0.647l0.025,0.027c-0.248-0.18-0.467-0.389-0.632-0.654l0.036,0.032
					c-0.426-0.259-0.266-0.886-0.707-1.136l-0.042-0.059c-0.157-0.23-0.336-0.441-0.544-0.631l0.003,0.005
					c-0.231-0.228-0.444-0.46-0.574-0.76c0-0.183-0.052-0.352-0.154-0.504c-0.142-0.211-0.313-0.412-0.503-0.592l0.003,0.008
					c-0.24-0.229-0.46-0.472-0.57-0.79c0.025-0.16-0.004-0.313-0.089-0.451c-0.213-0.222-0.409-0.46-0.533-0.742
					c0.017-0.174-0.016-0.34-0.096-0.492C425.198,164.341,424.997,164.106,424.87,163.83z"/>
				<path fill-rule="evenodd" clip-rule="evenodd" fill="#F9A11B" d="M463.484,181.328c1.146-1.041,2.07-2.318,2.383-3.782
					c0.299-1.408,1.025-2.373,1.995-3.286c0.294-0.277,0.563-0.58,0.835-0.881c0.405-0.444,0.354-0.903,0.028-1.364
					c-0.061-0.081-0.121-0.17-0.201-0.23c-2.142-1.668-2.679-3.906-2.307-6.466c0.01-0.072-0.112-0.16-0.174-0.243
					c-1.016-1.101-0.811-2.478-0.826-3.783c-0.05-3.677,0.033-7.349-0.044-11.027c-0.043-2.155-0.643-3.679-3.307-2.838
					c-0.824,0.26-1.64,0.172-2.081-0.756c-1.171-1.303-1.892-2.837-2.333-4.519c-0.653-2.484-1.874-4.695-3.238-6.857
					c-1.174-1.854-2.72-3.249-4.662-4.233c-0.901-0.464-1.779-1.001-2.723-1.362c-1.767-0.682-3.194-1.737-4.26-3.305
					c0.65-3.068,3.051-4.438,5.581-5.567c4.504-2.011,9.241-3.377,13.985-4.67c2.464-0.669,3.764-1.853,3.929-4.643
					c0.206-3.504,0.197-7.341,4.07-9.345c2.245-0.754,4.055,0.018,6.015,1.244c12.217,7.633,25.393,12.76,39.708,14.898
					c3.08,0.46,5.982,1.432,9.147,0.161c6.11-2.45,12.266-4.757,16.632-10.051c1.349-1.634,2.869-2.92,5.094-3.11
					c1.438-0.129,2.318-1.238,3.388-2.006c1.188-0.926,2.61-0.769,3.986-0.854c0.193-0.041,0.391-0.08,0.588-0.121
					c0.42-0.246,0.938-0.225,1.357-0.472c0.179,0.076,0.333,0.039,0.464-0.101c1.019-1.208,2.342-1.614,3.873-1.479
					c1.042-0.068,1.944,0.012,2.693,0.978c6.021,7.772,8.99,16.55,8.854,26.37c-0.021,1.337-0.028,2.682-1.245,3.606
					c-0.408,0.257-0.867,0.421-1.248,0.731h-0.001c-0.214,0.194-0.419,0.4-0.616,0.612v0.009c-0.215,0.191-0.416,0.396-0.612,0.607
					l-0.004,0.004c-0.216,0.199-0.417,0.414-0.643,0.604l0.02-0.02c-0.332,0.393-0.918,0.273-1.271,0.625
					c-0.193,0.04-0.391,0.082-0.59,0.125c-0.385,0.242-0.903,0.153-1.253,0.492c-0.198,0.041-0.396,0.081-0.592,0.121
					c-0.418,0.228-0.93,0.2-1.336,0.463l-0.263-0.026l-0.237,0.117c-0.438,0.3-0.976,0.304-1.457,0.493
					c-0.337,0.059-0.676,0.113-1.015,0.169c-0.581,0.386-1.354,0.019-1.914,0.495c-0.387,0.043-0.77,0.088-1.157,0.128
					c-0.538,0.263-0.982,0.573-0.667,1.277c0.031,0.37,0.064,0.734,0.098,1.095c0.646,1.237-0.086,2.658,0.52,3.9
					c0.029,0.341,0.055,0.678,0.079,1.018c0.724,1.424-0.135,3.042,0.548,4.475c0.025,0.354,0.047,0.711,0.069,1.064
					c0.732,1.657-0.139,3.479,0.534,5.135c-0.131,0.558-0.122,1.104,0.097,1.642c0.727,2.071-0.177,4.281,0.521,6.36
					c-0.132,0.758-0.155,1.505,0.079,2.25c0.633,4.923,0.095,9.873,0.293,14.802c0.077,1.908-0.287,3.831,0.244,5.718v0.137
					c-0.061,0.372-0.302,0.627-0.546,0.881l-0.006,0.002c-0.212,0.198-0.417,0.4-0.61,0.615l-0.001,0.002
					c-0.3,0.412-0.396,0.941-0.729,1.341c-3.192,2.008-6.364,4.016-10.125,4.895c-8.478,1.985-16.975,3.833-25.594,5.087
					c-7.983,1.163-15.938,0.692-23.868-0.336c-4.26-0.557-8.499-1.687-12.746-1.866c-4.246-0.179-7.976-1.646-11.876-2.837
					c-2.42-0.742-4.805-1.778-7.485-1.264c-1.081,0.206-1.884-0.648-2.596-1.408C461.203,187.515,461.552,183.078,463.484,181.328z"
					/>
				<path fill-rule="evenodd" clip-rule="evenodd" fill="#AE3E24" d="M462.913,190.096c0.473,0.395,0.965,0.763,1.398,1.186
					c0.53,0.527,0.906,0.622,1.439-0.061c0.317-0.416,0.96-0.238,1.449-0.103c3.457,0.945,6.899,1.931,10.365,2.849
					c0.742,0.195,0.855,0.669,1.065,1.28c0.274,0.794,0.817,0.929,1.321,0.22c0.543-0.761,1.128-0.793,1.848-0.656
					c2.417,0.437,4.826,0.899,7.242,1.357c9.088,1.719,18.244,2.572,27.506,2.139c3.694-0.177,7.339-0.773,10.959-1.416
					c5.539-0.984,11.021-2.309,16.541-3.405c1.881-0.386,3.609-1.483,5.645-1.179c0.217,0.029,0.579-0.225,0.718-0.447
					c0.889-1.44,2.432-1.906,3.853-2.318c1.135-0.328,1.979-0.971,2.892-1.582c0.206-0.211,0.396-0.206,0.569,0.038l-0.004-0.008
					c0.235,0.182,0.447,0.39,0.628,0.631l-0.021-0.022c0.263,0.201,0.474,0.439,0.609,0.743c0,3.596,0,7.191,0,10.792
					c-0.133,0.302-0.347,0.546-0.609,0.741l0.021-0.02c-0.181,0.236-0.396,0.444-0.628,0.643l0.007-0.019
					c-0.138,0.15-0.182,0.301-0.138,0.445c0.05,0.149,0.095,0.222,0.142,0.222l-0.007-0.017c0.227,0.201,0.443,0.404,0.624,0.646
					l-0.021-0.021c0.262,0.195,0.473,0.436,0.608,0.743c0.009,9.368,0.012,18.735,0.021,28.108
					c-0.646,2.794-0.116,5.639-0.303,8.449c-0.074,1.1,0.267,2.235-0.274,3.293c-0.012,0.803-0.025,1.606-0.04,2.408
					c-0.801,2.223,0.192,4.595-0.564,6.816c-0.024,0.793-0.045,1.583-0.066,2.375c-0.781,2.027,0.229,4.223-0.57,6.249
					c-0.011,0.392-0.021,0.778-0.034,1.165c-0.764,1.383,0.181,2.989-0.583,4.374c-0.014,0.381-0.029,0.761-0.042,1.136
					c-0.666,0.971,0.12,2.209-0.577,3.174c-0.06,0.178-0.071,0.352-0.038,0.53c-0.598,0.753,0.038,1.783-0.55,2.538
					c-0.027,0.38-0.048,0.756-0.073,1.133c-0.584,0.769,0.062,1.813-0.569,2.57c-0.063,0.174-0.073,0.348-0.035,0.533
					c-0.611,0.752,0.061,1.796-0.582,2.543c-0.061,0.171-0.073,0.35-0.035,0.529c-0.602,0.756,0.05,1.789-0.564,2.543
					c-0.065,0.18-0.078,0.368-0.041,0.552c-0.635,0.739,0.076,1.808-0.619,2.522l0.018-0.021c-0.186,0.236-0.404,0.432-0.604,0.643
					v0.006c-0.211,0.2-0.418,0.4-0.613,0.612h-0.004c-0.314,0.372-0.348,0.878-0.638,1.265c-0.787,1.023-1.847,1.507-3.113,1.696
					c-5.826,0.879-11.511,0.137-17.12-1.454c-0.791-0.227-1.389-0.821-1.889-1.477c-0.277-0.396-0.309-0.903-0.596-1.297
					l0.012,0.021c-0.241-0.182-0.453-0.396-0.636-0.64l0.025,0.03c-0.604-0.501-0.101-1.374-0.635-1.896
					c0.036-0.19,0.026-0.374-0.031-0.563c-0.754-1.385,0.174-2.995-0.571-4.389c-0.019-0.385-0.037-0.764-0.054-1.152
					c-0.746-1.379,0.193-2.977-0.578-4.355c-0.013-0.397-0.028-0.79-0.045-1.181c-0.716-1.403,0.173-3.006-0.552-4.404
					c-0.02-0.583-0.034-1.164-0.055-1.751c-0.732-1.4,0.166-3.006-0.559-4.404c-0.019-0.583-0.038-1.164-0.055-1.748
					c-0.777-1.813,0.217-3.797-0.574-5.603c-0.016-0.392-0.033-0.788-0.052-1.173c-0.652-0.973,0.104-2.195-0.551-3.17
					c-0.016-0.375-0.03-0.752-0.048-1.129c-0.683-0.973,0.087-2.206-0.563-3.186c-0.029-0.376-0.051-0.759-0.077-1.132
					c-0.578-0.762,0.048-1.781-0.549-2.537c-0.02-0.383-0.042-0.771-0.061-1.153c-0.694-1.174,0.161-2.582-0.563-3.753
					c-0.014-0.386-0.025-0.782-0.041-1.168c-0.746-1.384,0.181-2.987-0.573-4.369c0.033-0.188,0.024-0.37-0.033-0.55
					c-0.642-0.73,0.061-1.777-0.593-2.503c0.025-0.198,0.005-0.396-0.059-0.585c-0.319-0.395-0.248-0.936-0.522-1.342
					c0.034-0.17,0.021-0.329-0.047-0.486c-0.38-0.381-0.293-0.954-0.563-1.377c0.032-0.164,0.017-0.321-0.052-0.472
					c-0.551-0.524-0.068-1.376-0.595-1.911c0.021-0.196-0.008-0.383-0.076-0.57c-0.312-0.349-0.195-0.895-0.557-1.224l0.005,0.008
					c-0.366-0.339-0.271-0.905-0.604-1.261l0.008,0.019c-0.235-0.185-0.444-0.396-0.633-0.634l0.014,0.013
					c-0.647-0.437-1.294-0.403-1.94-0.005l-0.232-0.034l-0.235,0.026c-1.265-0.435-2.528-0.479-3.788,0.021l0.005-0.004
					c-0.358,0.336-0.24,0.887-0.568,1.234c-0.067,0.18-0.09,0.365-0.064,0.555c-0.516,0.54-0.051,1.377-0.577,1.917
					c-0.065,0.163-0.081,0.341-0.053,0.519c-0.294,0.386-0.214,0.927-0.521,1.31c-0.069,0.19-0.091,0.389-0.072,0.589
					c-0.535,0.525-0.069,1.348-0.57,1.883c-0.063,0.18-0.08,0.366-0.055,0.557c-0.513,0.538-0.046,1.387-0.6,1.912l0.002-0.009
					c-0.563,0.497-0.061,1.342-0.595,1.854c-0.07,0.164-0.088,0.332-0.055,0.504c-0.281,0.401-0.209,0.939-0.52,1.325
					c-0.068,0.187-0.095,0.381-0.072,0.573c-0.532,0.533-0.046,1.383-0.599,1.91c-0.066,0.156-0.079,0.317-0.048,0.485
					c-0.276,0.41-0.193,0.964-0.537,1.355c-0.069,0.172-0.087,0.351-0.06,0.535c-0.309,0.378-0.218,0.918-0.527,1.295
					c-0.07,0.186-0.1,0.372-0.077,0.57c-0.523,0.532-0.054,1.385-0.606,1.909l0.005-0.011c-0.563,0.501-0.052,1.353-0.606,1.858
					c-0.066,0.157-0.082,0.318-0.052,0.489c-0.279,0.413-0.189,0.976-0.556,1.354c-0.067,0.158-0.086,0.321-0.057,0.495
					c-0.284,0.413-0.189,0.973-0.556,1.354c-0.071,0.157-0.091,0.323-0.061,0.489c-0.282,0.412-0.191,0.978-0.557,1.355
					c-0.07,0.159-0.088,0.32-0.061,0.491c-0.282,0.413-0.187,0.978-0.558,1.354c-0.067,0.154-0.089,0.313-0.057,0.482
					c-0.274,0.423-0.203,0.988-0.581,1.366l0.008-0.015c-0.56,0.502-0.059,1.359-0.625,1.861l0.008-0.017
					c-0.563,0.503-0.054,1.353-0.6,1.863c-0.067,0.155-0.087,0.322-0.058,0.488c-0.278,0.409-0.189,0.968-0.54,1.351
					c-0.065,0.172-0.085,0.346-0.062,0.525c-0.3,0.389-0.212,0.93-0.522,1.307c-0.073,0.188-0.095,0.381-0.079,0.572
					c-0.523,0.535-0.047,1.385-0.606,1.907l0.006-0.011c-0.559,0.504-0.058,1.354-0.618,1.857l0.005-0.011
					c-0.563,0.503-0.065,1.341-0.592,1.855c-0.065,0.169-0.086,0.343-0.058,0.52c-0.296,0.389-0.205,0.94-0.537,1.319
					c-0.066,0.18-0.091,0.362-0.065,0.554c-0.319,0.37-0.224,0.911-0.531,1.283c-0.071,0.188-0.101,0.378-0.079,0.573
					c-0.33,0.361-0.227,0.901-0.536,1.273c-0.068,0.193-0.093,0.389-0.073,0.592c-0.54,0.522-0.054,1.373-0.609,1.891l0.004-0.011
					c-0.559,0.501-0.073,1.325-0.577,1.845c-0.065,0.185-0.083,0.369-0.057,0.56c-0.511,0.537-0.063,1.357-0.557,1.9
					c-0.064,0.19-0.08,0.383-0.051,0.581c-0.646,0.73,0.044,1.767-0.582,2.508c-0.061,0.175-0.075,0.361-0.045,0.545
					c-0.5,0.543-0.07,1.348-0.538,1.899c-0.069,0.196-0.088,0.392-0.062,0.592c-0.658,0.729,0.053,1.777-0.6,2.507
					c-0.062,0.166-0.075,0.346-0.04,0.516c-0.484,0.561-0.051,1.387-0.559,1.937c-0.065,0.157-0.083,0.321-0.056,0.489
					c-0.143,0.301-0.352,0.535-0.614,0.734l0.021-0.021c-0.184,0.24-0.395,0.444-0.627,0.635v-0.012
					c-0.28,0.361-0.302,0.846-0.57,1.215c-0.76,0.863-1.525,1.61-2.875,1.254c-5.427-1.433-11.05-2.243-16.024-5.098
					c-1.458-0.832-3.543-0.479-4.474-2.329c-0.213-0.394-0.344-0.83-0.639-1.176l0.003,0.008c-0.534-0.548-0.103-1.384-0.583-1.945
					c-0.025-1.411-0.049-2.819-0.072-4.222c-0.771-2.643,0.262-5.416-0.558-8.059c-0.021-0.801-0.038-1.602-0.058-2.404
					c-0.737-2.452,0.215-5.022-0.543-7.472c-0.017-0.996-0.033-1.987-0.047-2.983c-0.65-3-0.099-6.053-0.299-9.071
					c-0.074-1.104,0.283-2.234-0.286-3.286c-0.018-2.652-0.035-5.303-0.051-7.953c-0.445-3.48-0.438-6.961-0.005-10.439
					c0.137-1.443,0.189-2.88-0.039-4.317c-0.233-0.3-0.424-0.632-0.567-0.982c-0.813-4.083,0.703-8.075,0.432-12.168
					c-0.317-4.776-0.207-9.579-0.033-14.362C460.979,194.013,460.708,191.597,462.913,190.096z"/>
				<path fill-rule="evenodd" clip-rule="evenodd" fill="#F9A11B" d="M577.878,56.826c-0.566,0.053-1.131,0.107-1.697,0.16
					c-0.823,0.42-1.801-0.037-2.607,0.458c-0.774,0.05-1.544,0.102-2.314,0.152c-1.007,0.493-2.18-0.135-3.164,0.479
					c-0.793,0.049-1.583,0.093-2.374,0.142c-1.029,0.469-2.209-0.101-3.223,0.456c-0.782-0.167-1.55-0.055-2.313,0.138
					c-1.04,0.501-2.234-0.071-3.27,0.469c-0.769-0.159-1.521-0.04-2.269,0.146c-1.229,0.557-2.619-0.135-3.845,0.48
					c-1.19-0.184-2.368-0.012-3.548,0.159c-1.641,0.56-3.405-0.215-5.033,0.463c-0.98-0.153-1.959-0.186-2.935,0.041
					c-0.305,0.259-0.638,0.476-1,0.636c-3.734,0.665-7.529,0.456-11.297,0.809c-13.67,1.282-27.338,0.273-41.013-0.334
					c-5.19-0.23-10.381-0.289-15.54-0.983c-6.451-0.068-12.862-0.726-19.265-1.442c-4.881-0.547-9.634-1.762-14.287-3.387
					c-3.148-1.1-5.346-3.322-7.477-5.682c-0.305-0.334-0.207-0.751,0.087-1.097c1.821-2.166,3.841-3.741,6.895-4.034
					c4.878-0.48,9.704-1.457,14.566-2.07c5.782-0.73,11.584-1.26,17.365-1.965c1.186-0.142,2.186,0.41,3.293,0.434
					c0.283,0.461,0.297,0.964,0.287,1.482c-0.093,4.282,0.902,5.551,5.091,6.55c1.512,0.358,3.046,0.383,4.581,0.418
					c1.134,0.021,2.25,0.101,3.238,0.782c4.458,3.066,9.187,2.977,14.01,1.059c1.688-0.672,3.41-0.663,5.147-0.621
					c9.356,0.238,18.652-0.131,27.771-2.527c2.675-0.707,5.363-1.378,7.757-2.855c1.957-1.208,2.485-2.715,1.439-4.936
					c-1.067-2.266-2.563-2.759-4.704-1.785c-7.406,3.344-15.498,3.654-23.268,5.405c-11.753,2.648-22.961-0.643-34.357-2.083
					c-0.406-0.053-0.898-0.088-1.173-0.339c-1.845-1.733-3.825-1.456-5.874-0.493c-0.087-0.479-0.521-1.119,0.02-1.411
					c1.125-0.612,1.139-1.556,1.099-2.604c-0.049-1.473,0.354-2.82,1.086-4.102c2.595-4.551,5.346-8.987,9.205-12.62
					c0.897-0.839,1.769-1.711,2.61-2.61c4.403-4.69,10.035-6.517,16.248-6.961c4.045-0.292,7.941,0.554,11.814,1.602
					c1.475,0.4,2.905,1.02,4.463,1.079c0.334,0.028,0.571,0.262,0.847,0.412c0.166,0.144,0.357,0.192,0.575,0.151
					c0.373,0.332,0.937,0.238,1.3,0.582l0.004,0.008c0.32,0.378,0.887,0.265,1.227,0.612h0.006c0.319,0.384,0.885,0.271,1.225,0.614
					l0.004,0.005c0.313,0.381,0.916,0.249,1.208,0.672l-0.04-0.029c0.207,0.169,0.421,0.321,0.648,0.46
					c0.114,0.155,0.268,0.218,0.458,0.188c0.318,0.095,0.557,0.321,0.804,0.535l0.014,0.012c0.296,0.401,0.915,0.259,1.183,0.706
					l-0.047-0.045c0.271,0.131,0.451,0.38,0.7,0.538l0.037,0.016c0.257,0.432,0.927,0.266,1.125,0.779l-0.066-0.07
					c0.331,0.103,0.539,0.341,0.708,0.621l-0.044-0.045c0.277,0.145,0.468,0.385,0.689,0.587h0.004
					c0.187,0.211,0.396,0.385,0.632,0.532l0.071,0.059c0.123,0.241,0.306,0.413,0.551,0.518l0.091,0.071
					c0.186,0.482,0.887,0.295,1.051,0.81l-0.066-0.078c0.339,0.117,0.566,0.339,0.676,0.68l-0.06-0.059
					c0.337,0.109,0.563,0.332,0.675,0.675l-0.061-0.062c0.34,0.108,0.567,0.337,0.676,0.674l-0.059-0.056
					c0.336,0.109,0.563,0.335,0.676,0.673l-0.061-0.061c0.339,0.112,0.566,0.335,0.674,0.675l-0.059-0.062
					c0.336,0.113,0.565,0.341,0.677,0.675l-0.06-0.059c0.338,0.115,0.563,0.34,0.673,0.677l-0.06-0.059
					c0.339,0.113,0.565,0.336,0.67,0.677l-0.075-0.063c0.529,0.179,0.349,0.861,0.796,1.098l0.034,0.046
					c0.163,0.233,0.341,0.457,0.541,0.658l-0.014-0.017c0.23,0.211,0.465,0.414,0.589,0.707l-0.063-0.059
					c0.487,0.26,0.356,0.88,0.712,1.216l-0.013-0.017c0.279,0.232,0.515,0.493,0.571,0.865c-0.038,0.173,0.022,0.295,0.175,0.379
					c0.159,0.226,0.314,0.447,0.472,0.675l-0.045-0.056c0.456,0.286,0.337,0.893,0.682,1.234l-0.014-0.02
					c0.392,0.328,0.29,0.903,0.628,1.253l-0.012-0.021c0.578,0.508,0.109,1.354,0.606,1.895l-0.024-0.037
					c0.306,0.198,0.526,0.453,0.617,0.812c-0.051,0.169-0.008,0.305,0.135,0.412c0.176,0.22,0.348,0.444,0.509,0.675l-0.029-0.029
					c0.556,0.452,1.313,0.106,1.887,0.469c0.771,0.183,1.547,0.302,2.341,0.152c1.214,0.629,2.587-0.062,3.813,0.471
					c1.185,0.158,2.37,0.333,3.574,0.143c1.42,0.663,2.993-0.088,4.426,0.479c0.786,0.04,1.573,0.083,2.363,0.128
					c0.987,0.618,2.178-0.045,3.179,0.503c0.382,0.036,0.764,0.072,1.146,0.11c0.764,0.576,1.771-0.011,2.549,0.521
					c0.177,0.121,0.363,0.15,0.568,0.075c0.541,0.503,1.318,0.11,1.888,0.509c0.352,0.051,0.709,0.102,1.068,0.153
					c0.441,0.211,0.948,0.219,1.391,0.441c0.343,0.059,0.688,0.123,1.034,0.182c0.466,0.198,0.997,0.198,1.437,0.477
					c0.16,0.126,0.335,0.161,0.529,0.103c0.388,0.29,0.912,0.229,1.313,0.494c0.151,0.138,0.325,0.177,0.519,0.125
					c0.4,0.287,0.953,0.213,1.337,0.533c0.104,0.134,0.237,0.172,0.395,0.11c0.326,0.056,0.563,0.272,0.825,0.453
					c0.122,0.142,0.275,0.189,0.457,0.152c0.302,0.072,0.52,0.299,0.773,0.454c0.12,0.146,0.269,0.196,0.452,0.159
					c0.328,0.106,0.572,0.329,0.796,0.572l-0.013-0.008c0.217,0.198,0.417,0.41,0.633,0.608l0.004,0.002
					c0.193,0.212,0.399,0.418,0.61,0.61h0.003c0.197,0.214,0.397,0.421,0.613,0.615h0.004c0.194,0.218,0.397,0.42,0.613,0.614v0.008
					c0.196,0.211,0.399,0.412,0.613,0.61l0.004,0.002c0.242,0.249,0.478,0.501,0.547,0.859l-0.01,0.104
					c-0.069,0.399-0.289,0.678-0.668,0.825l0.058-0.072c-0.112,0.342-0.337,0.567-0.676,0.679l0.062-0.061
					c-0.112,0.343-0.339,0.562-0.675,0.675l0.061-0.059c-0.112,0.339-0.337,0.562-0.677,0.675l0.06-0.064
					c-0.111,0.342-0.336,0.569-0.676,0.683l0.075-0.075c-0.268,0.549-0.905,0.414-1.31,0.706l-0.26-0.026l-0.238,0.121
					c-0.562,0.452-1.341,0.072-1.914,0.5l0.011-0.051c-0.377,0.592-0.954,0.73-1.604,0.701
					C579.344,56.645,578.617,56.397,577.878,56.826z"/>
				<path fill-rule="evenodd" clip-rule="evenodd" fill="#FCC78E" d="M470.438,60.696c1.429-0.031,2.856-0.068,4.282-0.101
					c6.438-0.142,12.858,0.371,19.285,0.541c2.759,0.072,5.521,0.031,8.282,0.068c1.427,0.017,2.851,0.273,4.256,0.357
					c4.367,0.256,8.762,0.744,13.117-0.255c0.397-0.088,0.81-0.161,1.214-0.15c5.928,0.18,11.813-0.892,17.746-0.595
					c0.242,0.193,0.488,0.383,0.644,0.665l-0.021-0.019c0.246,0.182,0.462,0.393,0.643,0.642l-0.029-0.032
					c0.607,0.493,0.11,1.353,0.628,1.88l-0.021-0.026c0.621,0.809,0.742,1.605-0.01,2.406l0.04-0.017
					c-0.169,0.261-0.388,0.472-0.633,0.65l0.025-0.021c-0.182,0.24-0.396,0.457-0.639,0.635l0.025-0.022
					c-0.182,0.241-0.396,0.452-0.631,0.648l0.014-0.019c-0.291,0.391-0.335,0.904-0.648,1.279c-0.945,1.13-2.249,1.293-3.602,1.411
					c-3.395,0.294-6.385,1.445-8.483,4.289c-1.277,1.727-2.688,1.78-4.103,0.323c-3.031-3.104-7.029-3.143-10.861-3.293
					c-4.208-0.165-5.801,1.676-6.242,6.246c-0.08,0.83,0.011,1.637,0.094,2.453c0.83,8.056-4.322,12.77-12.36,11.326
					c-0.543-0.132-1.063-0.338-1.576-0.552c-0.308-0.136-0.604-0.299-0.844-0.521c0.008,0.01-0.118-0.205-0.118-0.205
					s-0.023,0.247-0.011,0.257c0.112,0.188,0.234,0.349,0.39,0.488c0.257,0.281,0.507,0.554,0.753,0.843
					c4.398,9.299,19.793,11.584,28.859,4.372c1.301-1.038,2.198-2.423,3.343-3.599c1.512-1.547,3.086-1.887,4.919-0.609
					c5.125,3.571,10.642,5.688,17.041,4.569c1.212-0.211,2.169,0.439,3.013,1.25c1.156,1.637,2.857,3.047,2.175,5.422
					c-0.383,0.474-0.752,0.956-1.15,1.425c-0.631,0.739-1.409,1.169-2.416,1.078c-1.854-0.164-3.049,0.854-4.125,2.195
					c-2.882,3.582-6.556,6.154-10.672,8.107c-1.469,0.701-3.041,1.21-4.592,1.713c-0.891,0.289-1.74,0.572-2.377,1.304
					c-0.504,0.581-1.037,0.524-1.597,0.051c-0.375-0.318-0.751-0.212-1.092,0.099c-0.306,0.271-0.604,0.555-0.913,0.822
					c-0.527,0.447-1.184,0.615-1.648,0.086c-1.219-1.39-2.814-1.372-4.471-1.551c-3.756-0.4-7.417-1.344-11.073-2.315
					c-7.356-1.96-14.265-5.038-21.118-8.251c-2.964-1.389-5.819-3.023-8.414-5.039c-0.868-0.675-1.617-1.119-2.764-0.709
					c-0.398,0.137-0.972-0.208-1.462-0.338c-1.256-0.996-1.074-2.42-0.837-3.667c0.832-4.308,0.033-8.8,1.475-13.027
					c0.729-2.134-1.679-3.424-1.407-5.421c0.398-2.298,0.884-4.578,1.171-6.889c0.315-2.53,0.9-4.999,1.505-7.459
					c0.378-1.544,0.598-3.194,1.941-4.345C473.044,60.608,471.545,61.632,470.438,60.696z"/>
				<path fill-rule="evenodd" clip-rule="evenodd" fill="#FCC78E" d="M570.057,131.337c0.813-1.068,1.578-2.147,0.932-3.594
					c0.38-5.899-0.961-11.508-2.993-16.98c-0.64-1.727-1.632-3.296-2.734-4.765c-1.037-1.376-2.249-2.592-2.771-4.332
					c-0.292-0.975-1.321-1.175-2.276-1.242c-0.196-0.11-0.257-0.209-0.188-0.303c0.069-0.089,0.138-0.137,0.209-0.137
					c0.412-0.045,0.824-0.094,1.236-0.144c0.22-0.138,0.414-0.301,0.581-0.491l0.003-0.008c0.213-0.191,0.413-0.402,0.62-0.608
					h-0.004c1.951-2.173,3.612-4.575,5.536-6.772l0,0c0.651-2.514,1.253-5.049,2.455-7.381c0.067-0.172,0.078-0.351,0.038-0.528
					c0.447-2.305,0.462-4.611-0.012-6.919c0.041-0.193,0.027-0.383-0.043-0.563c-0.683-1.396-1.32-2.801-1.134-4.418
					c0.028-0.171,0.004-0.334-0.071-0.495c-0.554-0.511-0.05-1.362-0.602-1.874l0.01,0.02c-2.529-3.582-2.52-5.444,0.034-7.329
					l-0.031,0.009c0.166-0.268,0.378-0.481,0.645-0.643l-0.028,0.024c0.163-0.265,0.379-0.482,0.642-0.643l-0.027,0.026
					c0.162-0.267,0.378-0.479,0.645-0.643l-0.033,0.04c0.29-0.446,0.901-0.303,1.223-0.68c0.204-0.021,0.411-0.043,0.613-0.063
					c1.238-0.662,2.467-0.988,3.666,0.091l-0.015-0.011c1.044,0.683,2.347-0.052,3.396,0.613c0.34,0.152,0.662,0.339,0.986,0.517
					c0.211,0.104,0.414,0.225,0.615,0.35c0.192,0.127,0.371,0.269,0.538,0.421c0.085,0.078,0.159,0.158,0.239,0.23
					c0.161,0.143,0.312,0.3,0.465,0.453c0.081,0.066,0.16,0.138,0.241,0.202c0.257,0.185,0.527,0.346,0.804,0.498
					c0.181,0.12,0.316,0.279,0.417,0.466c0.076,0.204,0.181,0.389,0.313,0.552l-0.013-0.005c0.221,0.185,0.412,0.404,0.646,0.578
					l0.017,0.024c0.16,0.2,0.348,0.372,0.563,0.513c0.143,0.1,0.3,0.154,0.473,0.154c0.323,0.12,0.571,0.331,0.762,0.623
					l-0.031-0.029c0.261,0.168,0.469,0.386,0.653,0.632l-0.024-0.027c0.243,0.183,0.461,0.394,0.64,0.643l-0.026-0.027
					c0.249,0.18,0.461,0.394,0.642,0.644l-0.023-0.029c0.244,0.182,0.46,0.394,0.639,0.643l-0.023-0.024
					c0.247,0.182,0.457,0.388,0.638,0.643l-0.023-0.026c0.244,0.182,0.46,0.39,0.642,0.639l-0.027-0.023
					c0.247,0.18,0.462,0.391,0.639,0.639l-0.024-0.022c0.25,0.182,0.462,0.393,0.643,0.637l-0.027-0.022
					c0.248,0.18,0.464,0.395,0.641,0.643l-0.023-0.028c0.248,0.183,0.464,0.39,0.631,0.653l-0.026-0.029
					c0.26,0.17,0.477,0.383,0.637,0.65l-0.025-0.029c0.296,0.188,0.509,0.439,0.619,0.771c-0.008,0.162,0.038,0.314,0.135,0.452
					c0.16,0.214,0.336,0.412,0.535,0.594h-0.006c0.204,0.216,0.434,0.412,0.598,0.661l-0.029-0.033
					c0.414,0.302,0.287,0.896,0.668,1.211l0.001,0.006c0.226,0.225,0.441,0.461,0.573,0.758c-0.007,0.18,0.033,0.345,0.126,0.497
					c0.173,0.226,0.34,0.456,0.504,0.694c-0.012,0.189,0.032,0.369,0.128,0.54c0.153,0.22,0.319,0.423,0.5,0.621l-0.019-0.026
					c0.391,0.313,0.263,0.902,0.65,1.215l0.003,0.009c0.344,0.334,0.228,0.905,0.616,1.218l0.005,0.008
					c0.335,0.343,0.225,0.91,0.61,1.227v0.008c0.343,0.351,0.249,0.905,0.594,1.256l-0.013-0.014
					c0.394,0.364,0.319,0.937,0.589,1.365c-0.035,0.161-0.017,0.321,0.059,0.475c0.522,0.56,0.098,1.386,0.563,1.961
					c-0.04,0.175-0.018,0.338,0.056,0.499c0.479,3.073,0.455,6.147,0.014,9.218c-0.069,0.182-0.085,0.369-0.043,0.56
					c-0.516,0.54-0.077,1.35-0.551,1.897c-0.078,0.18-0.1,0.357-0.074,0.555c-0.313,0.37-0.224,0.91-0.523,1.291
					c-0.075,0.174-0.105,0.363-0.088,0.556c-0.328,0.372-0.214,0.935-0.563,1.297c-0.078,0.154-0.098,0.31-0.066,0.48
					c-0.112,0.278-0.317,0.493-0.486,0.734c-0.091,0.179-0.127,0.366-0.116,0.567c-0.327,0.375-0.223,0.956-0.617,1.298l0.012-0.018
					c-0.345,0.347-0.238,0.921-0.627,1.25l0.013-0.019c-0.347,0.342-0.234,0.932-0.653,1.236l0.033-0.03
					c-0.159,0.247-0.393,0.437-0.562,0.67l-0.018,0.024c-0.407,0.292-0.267,0.9-0.683,1.188l0.033-0.034
					c-0.17,0.248-0.395,0.446-0.597,0.664v-0.006c-0.196,0.184-0.372,0.377-0.533,0.596c-0.097,0.132-0.144,0.282-0.139,0.451
					c-0.105,0.337-0.321,0.589-0.611,0.781l0.027-0.03c-0.164,0.255-0.386,0.469-0.625,0.655l0.022-0.022
					c-0.182,0.233-0.401,0.437-0.607,0.65l0.002-0.005c-0.203,0.201-0.413,0.413-0.609,0.621l0,0
					c-0.214,0.197-0.418,0.406-0.618,0.613l0,0c-0.212,0.201-0.414,0.403-0.616,0.619h0.003c-0.212,0.194-0.418,0.403-0.616,0.615
					l0,0c-0.213,0.197-0.418,0.4-0.614,0.612l0,0c-0.212,0.2-0.416,0.404-0.617,0.613l0,0c-0.209,0.201-0.415,0.409-0.613,0.618l0,0
					c-0.215,0.201-0.418,0.405-0.616,0.613l0,0c-0.212,0.204-0.417,0.406-0.615,0.616l0,0c-0.214,0.2-0.417,0.405-0.615,0.618l0,0
					c-0.212,0.201-0.416,0.403-0.617,0.613l0,0c-0.21,0.198-0.416,0.404-0.617,0.612h0.004c-0.213,0.204-0.416,0.423-0.646,0.61
					l0.022-0.019c-0.196,0.23-0.405,0.453-0.655,0.622l0.023-0.027c-0.171,0.252-0.385,0.471-0.649,0.632l0.028-0.026
					c-0.182,0.289-0.43,0.5-0.755,0.626c-0.174,0.002-0.335,0.053-0.475,0.155c-0.22,0.145-0.409,0.311-0.572,0.512l-0.011,0.016
					c-0.228,0.18-0.421,0.406-0.659,0.58l0.022-0.026c-0.2,0.271-0.442,0.485-0.764,0.61c-0.171-0.008-0.328,0.032-0.473,0.123
					c-0.214,0.17-0.421,0.344-0.615,0.531l0.018-0.012c-0.214,0.246-0.455,0.46-0.758,0.59c-0.181,0-0.344,0.048-0.495,0.147
					c-0.217,0.147-0.413,0.317-0.59,0.513l0.001-0.005c-0.226,0.233-0.461,0.447-0.758,0.581c-0.177-0.014-0.342,0.027-0.494,0.123
					c-0.223,0.172-0.445,0.344-0.665,0.515c-0.207,0.005-0.397,0.053-0.581,0.16c-0.219,0.123-0.416,0.28-0.584,0.472h0.006
					c-0.331,0.353-0.904,0.237-1.217,0.623l-0.012,0.003c-0.238,0.226-0.479,0.449-0.8,0.552l-0.226-0.004l-0.213,0.081
					c-0.408,0.331-0.817,0.309-1.231,0.014l-0.027-0.021C570.47,131.739,570.071,131.707,570.057,131.337z"/>
				<path fill-rule="evenodd" clip-rule="evenodd" fill="#754C29" d="M547.928,98.887c-1.031-0.87-2.01-1.276-3.56-1.02
					c-5.147,0.849-9.896-0.629-14.327-3.234c-1.141-0.666-2.214-1.458-3.297-2.229c-0.583-0.411-1.104-0.473-1.629,0.049
					c-0.802,0.793-1.762,1.476-2.364,2.396c-1.544,2.348-3.908,3.555-6.268,4.73c-4.552,2.271-9.331,2.881-14.277,1.488
					c-2.445-0.692-4.939-1.22-7.082-2.765c-1.441-1.045-2.654-2.204-3.454-3.81c-0.452-0.905-1.044-1.74-1.572-2.608
					c-0.244-0.128-0.406-0.321-0.476-0.589c-0.104-0.171-0.166-0.353-0.205-0.549c-0.105-0.146-0.182-0.313-0.116-0.423
					c0.156-0.27,0.396-0.185,0.624-0.094c0.24,0.196,0.484,0.396,0.726,0.598c0.408,0.267,0.921,0.198,1.345,0.417
					c1.725-0.037,3.396,0.621,5.177,0.223c1.456-0.329,2.724-0.817,3.738-1.93c0.617-0.684,1.256-1.364,1.957-1.955
					c1.219-1.028,1.614-2.308,1.434-3.845c-0.108-0.913,0-1.887-0.257-2.749c-0.658-2.203,0.087-4.252,0.48-6.348
					c0.296-1.58,1.368-2.439,2.826-2.951c1.783-0.626,3.611-0.758,5.464-0.556c1.52,0.171,3.036,0.434,4.547,0.685
					c2.094,0.351,3.915,1.165,5.14,3.015c0.218,0.332,0.536,0.622,0.839,0.889c0.361,0.321,1.077,0.204,1.379-0.185
					c0.062-0.08,0.155-0.145,0.192-0.232c1.762-4.048,5.464-4.959,9.25-5.523c1.432-0.214,2.817-0.26,3.955-1.27
					c0.227-0.168,0.389-0.115,0.498,0.138l-0.019-0.04c0.28,0.16,0.501,0.377,0.652,0.66l-0.04-0.039
					c0.269,0.122,0.457,0.35,0.685,0.529c0.156,0.134,0.328,0.164,0.52,0.088c0.383,0.313,1.032,0.164,1.267,0.734l-0.082-0.075
					c0.365,0.088,0.588,0.315,0.683,0.678l-0.065-0.064c0.365,0.094,0.589,0.319,0.679,0.681l-0.061-0.064
					c0.359,0.093,0.586,0.32,0.677,0.676l-0.064-0.059c0.362,0.09,0.591,0.316,0.679,0.678l-0.062-0.064
					c0.364,0.088,0.586,0.316,0.679,0.68l-0.063-0.064c0.362,0.092,0.588,0.317,0.677,0.679l-0.062-0.064
					c0.361,0.093,0.59,0.321,0.676,0.677l-0.061-0.059c0.36,0.089,0.588,0.316,0.679,0.677l-0.065-0.026
					c1.358,0.503,1.551,1.809,2.005,2.926l0.017,0.027c0.318,0.348,0.206,0.907,0.593,1.215l0.01,0.02
					c0.33,0.367,0.257,0.907,0.567,1.283l-0.019-0.033c0.426,0.396,0.401,0.975,0.586,1.475c-0.081,0.148-0.05,0.271,0.1,0.355
					c0.348,0.362,0.257,0.912,0.553,1.291l-0.025-0.029c0.231,0.167,0.453,0.341,0.675,0.517c0.16,0.155,0.344,0.183,0.547,0.099
					c0.687,0.44,1.383,0.338,2.078,0.027c0.264,0.005,0.521,0.005,0.782,0.014c0.422,0.059,0.707,0.278,0.844,0.683l-0.08-0.059
					c0.363,0.091,0.586,0.319,0.68,0.677l-0.063-0.059c0.359,0.086,0.586,0.313,0.677,0.678l-0.064-0.064
					c0.364,0.094,0.591,0.317,0.679,0.678l-0.062-0.063c0.36,0.092,0.588,0.318,0.681,0.678l-0.079-0.08
					c0.677,0.572,0.665,1.145,0.004,1.721l0.075-0.08c-0.075,0.338-0.32,0.533-0.563,0.738l0.012-0.016
					c-0.191,0.209-0.368,0.432-0.526,0.661l-0.04,0.07c-0.452,0.22-0.27,0.915-0.806,1.07l0.072-0.066
					c-0.08,0.354-0.317,0.565-0.633,0.712l0.052-0.056c-0.128,0.305-0.356,0.517-0.624,0.694l0.031-0.036
					c-0.156,0.265-0.379,0.471-0.62,0.653l0.012-0.017c-0.177,0.241-0.386,0.458-0.629,0.632l0.017-0.014
					c-0.182,0.241-0.391,0.45-0.632,0.632l0.015-0.016c-0.18,0.241-0.387,0.45-0.628,0.629l0.015-0.015
					c-0.182,0.237-0.391,0.454-0.628,0.631l0.011-0.011c-0.179,0.238-0.387,0.447-0.63,0.626l0.017-0.017
					c-0.186,0.245-0.391,0.464-0.661,0.622l0.035-0.031c-0.177,0.272-0.386,0.513-0.722,0.594l-0.019-0.043
					C549.703,98.93,548.976,99.31,547.928,98.887z"/>
				<path fill-rule="evenodd" clip-rule="evenodd" fill="#BB7043" d="M469.739,80.246c0.449,0.552,0.825,1.183,1.364,1.624
					c1.108,0.896,1.262,2.022,1.047,3.301c-0.051,0.304-0.062,0.616-0.166,0.903c-0.651,1.818-0.91,3.708-0.874,5.613
					c0.071,3.578-0.997,7.087-0.602,10.674c-1.02,1.136-2.353,2.135-2.963,3.457c-0.561,1.213-0.23,2.812-0.504,4.2
					c-0.279,1.416-0.318,2.841-0.404,4.259c-0.05,0.831-0.449,1.334-1.19,1.574c-2.031,0.664-4.062,1.35-6.112,1.949
					c-3.134,0.913-6.198,2.011-9.283,3.068c-3.115,1.065-5.54,2.938-7.481,5.525c-0.784,0.226-1.568,0.475-2.352,0
					c-0.205-0.354-0.317-0.835-0.621-1.033c-2.039-1.359-2.039-3.312-1.798-5.435c0.638-5.527,1.901-10.896,3.955-16.068
					c0.416-1.044,0.833-2.091,1.266-3.133c3.554-8.543,4.081-9.122,10.436-15.692c2.653-2.748,5.762-4.164,9.402-4.699
					c1.718-0.254,3.457-0.4,5.182-0.646C468.729,79.59,469.187,80.021,469.739,80.246z"/>
				<path fill-rule="evenodd" clip-rule="evenodd" fill="#BB7043" d="M462.913,190.096c-0.982,1.438-0.874,3.151-0.938,4.719
					c-0.211,5.107-0.19,10.22-0.262,15.328c0.652,1.695-0.1,3.361-0.135,5.04c-0.06,2.648-0.286,5.299-0.442,7.941
					c-0.623,0.28-1.249,0.369-1.84-0.091l0.006,0.003c-0.329-0.365-0.929-0.235-1.216-0.675l0.034,0.024
					c-0.366-0.314-0.996-0.177-1.227-0.727l0.076,0.071c-0.34-0.068-0.536-0.322-0.737-0.571l0.024,0.021
					c-0.242-0.172-0.436-0.396-0.659-0.584l-0.012-0.005c-0.19-0.22-0.394-0.417-0.605-0.608l-0.014-0.013
					c-0.187-0.213-0.388-0.412-0.602-0.601l-0.012-0.013c-0.19-0.217-0.391-0.413-0.603-0.604l-0.014-0.01
					c-0.188-0.217-0.388-0.418-0.603-0.607l-0.016-0.011c-0.187-0.212-0.387-0.412-0.599-0.603l-0.014-0.014
					c-0.186-0.224-0.402-0.418-0.589-0.641l0.011,0.015c-0.225-0.206-0.455-0.404-0.607-0.678l0.037,0.044
					c-0.275-0.18-0.511-0.387-0.618-0.714l0.069,0.063c-0.507-0.176-0.316-0.861-0.789-1.069l-0.049-0.072
					c-0.142-0.241-0.315-0.466-0.519-0.653l0.007,0.003c-0.225-0.217-0.468-0.419-0.564-0.726l0.063,0.064
					c-0.506-0.21-0.337-0.868-0.769-1.127l-0.018-0.038c-0.155-0.255-0.409-0.434-0.535-0.707l0.045,0.052
					c-0.452-0.266-0.307-0.89-0.708-1.184l-0.005-0.016c-0.232-0.255-0.476-0.508-0.526-0.865c0.051-0.18-0.003-0.311-0.174-0.385
					c-0.161-0.226-0.317-0.459-0.466-0.694l0.047,0.062c-0.472-0.287-0.361-0.883-0.673-1.256l0.024,0.035
					c-0.429-0.313-0.33-0.895-0.638-1.27l0.022,0.041c-0.43-0.318-0.342-0.895-0.628-1.283l0.029,0.052
					c-0.463-0.386-0.432-0.982-0.61-1.486c0.084-0.149,0.048-0.265-0.104-0.346c-0.344-0.42-0.314-0.974-0.521-1.445
					c0.075-0.171,0.035-0.308-0.129-0.409c-0.289-0.439-0.296-0.972-0.483-1.448c0.101-0.155,0.074-0.28-0.075-0.386
					c-0.521-0.576-0.132-1.408-0.561-2.014c0.097-0.168,0.075-0.317-0.071-0.449c-0.596-0.784-0.005-1.824-0.546-2.619
					c0.104-0.168,0.085-0.315-0.056-0.455c-0.694-0.981,0.075-2.219-0.571-3.207c0.096-0.177,0.074-0.342-0.065-0.492
					c-0.567-0.816-0.035-1.848-0.521-2.68c0-1.055,0.004-2.109,0.005-3.165c0.054-0.425,0.276-0.714,0.686-0.851l-0.064,0.08
					c0.09-0.361,0.316-0.587,0.678-0.683l-0.03,0.066c0.038-0.347,0.193-0.438,0.491-0.228c1.061-1.229,2.229-1.376,3.788-0.813
					c2.288,0.827,4.681,1.35,7.035,1.979c0.284,0.081,0.602,0.117,0.884,0.069c3.384-0.572,6.892-0.586,10.035-2.238
					c0.08-0.043,0.205-0.013,0.304-0.016c-0.751,1.279-1.807,2.514-0.545,4.066c-0.067,0.992-0.055,2-0.236,2.973
					C462.584,189.01,462.623,189.545,462.913,190.096z"/>
				<path fill-rule="evenodd" clip-rule="evenodd" fill="#FCC78E" d="M464.3,286.533c0.482,0.371,0.964,0.744,1.45,1.113
					c0.24,0.182,0.568,0.555,0.734,0.492c1.895-0.658,3.025,0.948,4.46,1.524c3.433,1.37,6.878,2.626,10.573,3.054
					c0.712,0.084,1.42,0.387,2.112,0.335c0.906-0.063,1.305,1.202,2.133,0.804c0.713-0.338,1.274-0.999,1.908-1.521
					c0.214-0.021,0.405,0.043,0.567,0.19l0.04,0.057c0.314,0.83,0.396,1.654-0.051,2.462c-0.071,0.164-0.087,0.336-0.057,0.508
					c-0.287,0.4-0.216,0.933-0.512,1.324c-0.078,0.19-0.105,0.389-0.078,0.592c-0.544,0.52-0.054,1.373-0.616,1.885l0.007-0.008
					c-0.35,0.329-0.25,0.856-0.528,1.219c-0.085,0.184-0.118,0.376-0.102,0.577c-0.334,0.363-0.22,0.915-0.554,1.28
					c-0.076,0.166-0.101,0.334-0.072,0.508c-0.129,0.262-0.329,0.479-0.496,0.713c-0.086,0.159-0.129,0.329-0.12,0.511
					c-0.145,0.292-0.355,0.53-0.601,0.736l0.014-0.013c-0.192,0.222-0.408,0.422-0.604,0.636l0,0
					c-0.215,0.198-0.419,0.402-0.62,0.616l0,0c-0.207,0.201-0.414,0.407-0.614,0.616l0,0c-0.21,0.198-0.415,0.404-0.616,0.613l0,0
					c-0.209,0.201-0.416,0.403-0.612,0.618l0,0c-0.212,0.195-0.417,0.404-0.625,0.613l0.003-0.006
					c-0.211,0.222-0.444,0.432-0.723,0.59c-0.189,0-0.363,0.042-0.528,0.133c-0.234,0.17-0.465,0.327-0.702,0.482
					c-0.182-0.023-0.355,0.006-0.521,0.085c-0.365,0.313-0.913,0.196-1.257,0.547c-0.206-0.021-0.401,0.008-0.592,0.091
					c-0.239,0.18-0.457,0.383-0.742,0.498L475.515,311l-0.232,0.072c-0.389,0.351-0.943,0.271-1.358,0.54l-0.163-0.039l-0.157,0.048
					c-0.31-0.127-0.549-0.343-0.772-0.573l0,0c-0.2-0.209-0.406-0.412-0.616-0.613l0,0c-0.184-0.198-0.384-0.38-0.6-0.548
					c-0.163-0.094-0.338-0.132-0.53-0.11c-0.388-0.282-0.902-0.226-1.301-0.481c-0.184-0.075-0.376-0.113-0.572-0.11
					c-0.243-0.171-0.457-0.383-0.698-0.555l-0.038-0.032c-0.16-0.223-0.353-0.406-0.584-0.547l-0.063-0.063
					c-0.137-0.229-0.324-0.414-0.555-0.552l-0.061-0.064c-0.139-0.23-0.322-0.414-0.551-0.551l-0.066-0.064
					c-0.139-0.227-0.325-0.414-0.551-0.548l-0.062-0.066c-0.14-0.23-0.324-0.417-0.552-0.552l-0.065-0.063
					c-0.144-0.232-0.323-0.422-0.548-0.57l-0.048-0.05c-0.168-0.226-0.354-0.444-0.548-0.65l0.014,0.015
					c-0.392-0.368-0.316-0.939-0.585-1.356c0.037-0.169,0.018-0.329-0.057-0.482c-0.441-5.127-0.56-10.254,0.05-15.378l-0.018,0.041
					C463.812,286.852,463.848,286.445,464.3,286.533z"/>
				<path fill-rule="evenodd" clip-rule="evenodd" fill="#FCC78E" d="M528.824,287.54c0.548,0.449,1.102,0.894,1.64,1.347
					c0.322,0.27,0.729,0.609,1.08,0.367c0.867-0.604,1.534-0.068,2.264,0.229c2.187,0.901,4.451,1.33,6.826,1.354
					c2.64,0.021,5.25-0.198,7.866-0.426c0.44-0.032,0.754-0.166,1.075-0.428c0.465-0.389,0.948-0.747,1.428-1.123
					c0.224-0.199,0.398-0.163,0.528,0.11l0.009-0.045c0.262,0.16,0.478,0.374,0.638,0.642l-0.048-0.016
					c0.185,0.11,0.256,0.232,0.213,0.363c-0.046,0.143-0.095,0.213-0.152,0.213c-0.009,0.371-0.017,0.744-0.026,1.112
					c-0.464,0.574-0.06,1.385-0.542,1.95c-0.068,0.178-0.088,0.367-0.056,0.554c-0.519,0.54-0.044,1.389-0.592,1.925
					c-0.07,0.143-0.09,0.301-0.052,0.464c-0.265,0.429-0.19,0.998-0.592,1.37l0.015-0.024c-0.346,0.349-0.23,0.938-0.653,1.242
					l0.031-0.032c-0.164,0.254-0.391,0.452-0.603,0.662l0.009-0.008c-0.205,0.2-0.391,0.412-0.563,0.643l-0.026,0.036
					c-0.429,0.282-0.289,0.85-0.604,1.187l-0.02,0.024c-0.157,0.139-0.219,0.289-0.182,0.439c0.036,0.157,0.08,0.238,0.132,0.238
					c-0.06,0.124-0.063,0.243-0.009,0.372c-0.127,0.303-0.347,0.537-0.573,0.766l0,0c-0.207,0.197-0.416,0.404-0.614,0.616l0,0
					c-0.213,0.198-0.419,0.4-0.615,0.614l0,0c-0.212,0.195-0.416,0.405-0.617,0.617h0.004c-0.212,0.2-0.418,0.403-0.617,0.614l0,0
					c-0.214,0.198-0.416,0.417-0.632,0.611l0.01-0.011c-0.323,0.371-0.911,0.248-1.231,0.629c-0.216,0.035-0.428,0.069-0.643,0.102
					c-0.574,0.38-1.341-0.006-1.877,0.493c-0.762-0.008-1.519-0.016-2.282-0.022c-0.573-0.469-1.403-0.05-1.96-0.572l0.003,0.003
					c-0.188-0.209-0.401-0.388-0.631-0.552l-0.059-0.05c-0.142-0.23-0.326-0.417-0.559-0.552l-0.063-0.063
					c-0.137-0.232-0.322-0.417-0.55-0.554l-0.067-0.064c-0.137-0.228-0.324-0.412-0.55-0.55l-0.063-0.066
					c-0.146-0.232-0.329-0.422-0.552-0.588l-0.024-0.032c-0.17-0.22-0.364-0.412-0.588-0.584l-0.038-0.03
					c-0.168-0.223-0.358-0.422-0.572-0.609l-0.013-0.011c-0.21-0.233-0.423-0.467-0.558-0.755c0.02-0.174-0.01-0.343-0.086-0.493
					c-0.212-0.238-0.412-0.474-0.518-0.779c0.039-0.146,0.021-0.302-0.056-0.441c-0.371-0.378-0.283-0.947-0.556-1.368
					c0.031-0.162,0.012-0.324-0.063-0.479c-0.535-0.524-0.047-1.369-0.592-1.891c0.027-0.201,0.008-0.399-0.068-0.583
					c-0.308-0.394-0.244-0.936-0.514-1.348c0.04-0.165,0.028-0.326-0.044-0.481c-0.653-0.742,0.032-1.793-0.589-2.541
					c0.033-0.188,0.018-0.369-0.053-0.549c-0.392-1.025-0.503-2.049,0.068-3.055l-0.02,0.033
					C528.387,287.48,528.58,287.416,528.824,287.54z"/>
				<path fill-rule="evenodd" clip-rule="evenodd" fill="#BB7043" d="M459.786,146.671c0.387,0.104,0.775,0.302,1.158,0.277
					c0.385-0.022,0.766-0.241,1.137-0.402c0.832-0.372,1.889-0.958,2.555-0.452c1.022,0.783,1.54,2.002,1.45,3.473
					c-0.125,2.116,0.012,4.254,0.009,6.385c-0.005,3.041-0.032,6.082-0.051,9.124c-0.522,0.104-1.001,0.062-1.406-0.341
					c-2.957-2.941-6.017-5.793-8.489-9.186c-1.595-2.184-1.514-3.724,0.339-5.712C457.525,148.726,458.681,147.719,459.786,146.671z
					"/>
				<path fill-rule="evenodd" clip-rule="evenodd" fill="#D42E2E" d="M471.562,41.51c1.251-0.311,1.818-1.205,2.085-2.388
					c0.104-0.448,0.481-0.671,0.894-0.739c0.603-0.102,1.074,0.268,1.151,0.768c0.277,1.818,1.574,2.118,3.076,2.424
					c4.214,0.851,8.47,1.395,12.742,1.847c1.318,0.138,2.63,0.368,3.942,0.578c2.637,0.426,5.335,0.306,7.938,0.726
					c2.437,0.391,4.6,0.112,6.848-0.693c1.234-0.441,2.556-0.635,3.906-0.699c1.52-0.066,3.032-0.422,4.546-0.662
					c2.422-0.395,4.837-0.81,7.26-1.195c2.956-0.466,5.714-1.547,8.46-2.675c1.134-0.468,2.271-0.952,3.449-1.253
					c1.831-0.473,2.523-0.104,3.252,1.766c0.446,1.145,1.334,2.027,1.625,3.276c0.19,0.813,0.063,1.41-0.411,1.961
					c-1.224,1.421-2.735,2.433-4.506,3.069c-3.951,1.439-8.032,2.355-12.156,3.141c-7.8,1.475-15.676,1.467-23.561,1.293
					c-1.494-0.03-2.823,0.054-4.012,1.053c-0.553,0.456-1.239,0.663-1.997,0.663c-2.97,0-5.932,0.035-8.879-0.498
					c-1.078-0.192-2.033-0.577-2.561-1.479c-0.496-0.854-1.15-1.055-2.008-1.075c-1.329-0.038-2.661-0.063-3.99-0.146
					c-2.285-0.15-4.393-0.748-6.286-2.159c-1.216-0.896-1.708-1.96-1.606-3.396c0.091-1.234,0.282-2.442,0.853-3.562L471.562,41.51z
					"/>
				<path fill-rule="evenodd" clip-rule="evenodd" fill="#A28C7C" d="M489.925,90.231c-0.167,0.174-0.336,0.343-0.508,0.517
					c-0.179-0.225-0.449-0.431-0.514-0.685c-0.063-0.252,0.088-0.552,0.146-0.836c0.229,0.146,0.492,0.261,0.679,0.444
					C489.854,89.801,489.864,90.041,489.925,90.231z"/>
				<path fill-rule="evenodd" clip-rule="evenodd" fill="#A28C7C" d="M491.996,91.246c-0.53,0.129-0.996,0.051-1.345-0.417
					C491.169,90.732,491.63,90.833,491.996,91.246z"/>
				<path fill-rule="evenodd" clip-rule="evenodd" fill="#A28C7C" d="M489.623,91.297c0.155,0.193,0.315,0.391,0.476,0.589
					C489.788,91.809,489.608,91.629,489.623,91.297z"/>
				<g>
					<path fill-rule="evenodd" clip-rule="evenodd" fill="#4F2A0B" d="M533.374,180.089c-1.085,0.029-2.4,1.163-2.502,2.299
						c-0.081,0.908-0.104,1.853,0.066,2.739c0.415,2.217,2.547,3.081,4.42,1.868c0.256-0.16,0.521-0.326,0.741-0.527
						c1.217-1.103,1.473-2.353,0.817-3.85C536.298,181.21,534.674,180.049,533.374,180.089z"/>
					<path fill-rule="evenodd" clip-rule="evenodd" fill="#4F2A0B" d="M533.559,161.094c-1.38,0.457-2.136,1.731-2.092,3.689
						c0.023,1.108,0.242,1.787,0.837,2.561c1.038,1.355,2.276,1.548,3.746,0.628c2.229-1.405,2.448-4.238,0.502-6.31
						C535.568,160.617,534.987,160.617,533.559,161.094z"/>
					<path fill-rule="evenodd" clip-rule="evenodd" fill="#4F2A0B" d="M532.53,146.18c0.885,0.337,1.573-0.276,2.183-0.782
						c2.304-1.914,1.449-4.572,0.121-5.873c-0.782-0.77-1.46-0.742-2.422-0.103c-1.306,0.878-1.884,2.063-1.763,3.617
						c0.026,0.303,0.05,0.608,0.08,0.907C530.852,145.08,531.543,145.799,532.53,146.18z"/>
					<polygon fill-rule="evenodd" clip-rule="evenodd" fill="#4F2A0B" points="491.062,94.421 491.068,94.419 491.062,94.419 					
						"/>
					<path fill-rule="evenodd" clip-rule="evenodd" fill="#4F2A0B" d="M490.993,92.492c0,0.018,0,0.031,0,0.042
						c0.021-0.011,0.042-0.024,0.066-0.049C491.035,92.492,491.012,92.492,490.993,92.492z"/>
					<path fill-rule="evenodd" clip-rule="evenodd" fill="#4F2A0B" d="M476.331,109.638c0,0,0,0,0,0.009
						c0.009-0.009,0.011-0.011,0.017-0.017L476.331,109.638z"/>
					<path fill-rule="evenodd" clip-rule="evenodd" fill="#4F2A0B" d="M600.919,83.879c2.878,7.124,3.008,14.344,0.833,21.672
						c-2.067,6.959-5.898,12.824-11.117,17.773c-6.07,5.759-12.879,10.451-20.573,13.812c-3.579,1.563-7.346,2.54-11.102,3.556
						c-1.212,0.324-1.325,0.423-1.216,1.667c0.241,2.65,0.523,5.301,0.823,7.944c1.303,11.423,1.699,22.879,1.865,34.363
						c0.229,15.486,0.164,30.967,0.12,46.441c-0.022,8.813-0.494,17.618-1.29,26.399c-0.223,2.444-0.303,4.911-0.558,7.352
						c-0.665,6.425-1.785,12.778-3.06,19.104c-0.606,3.012-1.179,6.034-1.685,9.068c-0.744,4.467-2.3,8.689-3.962,12.869
						c-0.256,0.65-0.657,1.344-1.185,1.77c-2.952,2.376-6.18,4.021-10.156,3.461c-2.835-0.402-5.029-1.711-6.272-4.35
						c-0.604-1.297-1.14-2.636-1.576-3.995c-2.354-7.354-3.504-14.944-4.324-22.591c-0.549-5.088-1.116-10.183-1.554-15.286
						c-0.388-4.497-0.799-8.979-1.501-13.442c-0.538-3.438-1.011-6.885-1.502-10.33c-0.159-1.117-0.33-2.233-0.409-3.355
						c-0.295-4.135-1.481-8.042-2.963-11.876c-0.218-0.573-0.484-1.127-0.76-1.679c-0.617-1.244-1.696-1.727-3.018-1.723
						c-3.081,0-3.423,0.262-4.31,3.564c-2.575,9.598-5.467,19.094-8.585,28.531c-2.698,8.168-5.346,16.354-7.775,24.604
						c-1.385,4.703-2.278,9.56-3.414,14.339c-0.992,4.187-2.081,8.334-3.489,12.417c-1.392,4.039-4.244,6.363-8.028,7.873
						c-1.181,0.471-2.358,0.59-3.605,0.578c-2.305-0.023-4.47-0.666-6.533-1.571c-2.027-0.894-3.542-2.368-4.325-4.543
						c-0.737-2.048-1.158-4.131-1.149-6.31c0.011-2.771,0.024-5.542-0.005-8.305c-0.063-6.563-0.448-13.107-0.855-19.648
						c-0.393-6.342-0.635-12.694-0.991-19.031c-0.471-8.401-0.409-16.805-0.409-25.204c0-0.618-0.017-1.234-0.063-1.845
						c-0.033-0.42-0.199-0.703-0.691-0.843c-3.48-0.975-6.18-3.122-8.434-5.863c-5.514-6.708-9.008-14.362-10.598-22.892
						c-0.752-4.041-1.427-8.08-1.028-12.215c0.095-0.957-0.395-1.475-1.151-1.961c-2.59-1.677-4.9-3.695-7.025-5.939
						c-4.549-4.808-7.722-10.309-8.734-16.93c-0.128-0.849-0.408-1.582-1.141-2.081c0-2.052,0-4.108,0-6.153
						c0.247-0.15,0.634-0.247,0.713-0.458c0.223-0.57,0.36-1.176,0.442-1.786c0.676-5.003,2.829-9.389,5.71-13.445
						c1.899-2.682,4.033-5.179,6.562-7.3c1.087-0.913,1.609-1.952,1.693-3.411c0.286-4.912,0.84-9.798,2.048-14.588
						c1.716-6.795,4.35-13.232,7.631-19.396c2.271-4.268,5.737-7.472,9.845-9.93c2.875-1.718,6.142-2.176,9.442-2.416
						c1.196-0.09,2.703,0.575,3.505-0.395c0.622-0.756,0.54-2.118,0.703-3.224c0.527-3.544,1.137-7.075,2.049-10.548
						c0.076-0.281,0.011-0.595,0.011-0.864c-0.766-0.532-1.592-0.513-2.412-0.544c-6.247-0.227-12.476-0.718-18.686-1.473
						c-5.312-0.645-10.458-1.948-15.485-3.766c-1.844-0.673-3.513-1.646-5.039-2.893c-1.344-1.092-2.116-2.529-2.354-4.186
						c-0.274-1.916,0.139-3.552,1.901-4.83c1.744-1.265,3.669-1.837,5.685-2.14c6.684-0.994,13.345-2.146,20.101-2.661
						c3.979-0.305,7.904-1.183,11.911-1.29c0.512-0.011,1.02-0.104,1.53-0.113c0.992-0.008,2.197,0.75,2.908-0.097
						c0.502-0.596,0.379-1.737,0.487-2.643c0.357-2.883,1.305-5.575,2.665-8.124c3.032-5.696,6.998-10.581,12.394-14.231
						c6.334-4.286,13.305-5.757,20.787-4.499c3.221,0.542,6.4,1.431,9.529,2.388c5.15,1.586,9.672,4.381,13.985,7.58
						c5.333,3.946,9.186,9.014,11.741,15.092c0.553,1.319,0.92,2.708,1.391,4.061c0.331,0.948,0.527,1.063,1.603,0.984
						c1.227-0.088,2.449-0.211,3.679-0.29c10.683-0.659,21.018,1.092,31.102,4.532c1.848,0.629,3.61,1.48,5.256,2.526
						c1.031,0.661,2.103,1.337,2.933,2.22c2.299,2.449,1.918,4.484-0.387,6.201c-2.289,1.699-4.96,2.371-7.676,2.955
						c-0.774,0.168-1.662,0.01-2.279,0.693c-0.136,0.624,0.41,0.573,0.719,0.744c6.893,3.885,12.835,8.781,16.771,15.809
						C598.755,79.465,599.995,81.59,600.919,83.879L600.919,83.879z M552.029,277.265c0.938-5.038,1.722-10.098,2.098-15.217
						c0.277-3.777,0.481-7.562,0.76-11.344c0.595-8.071,0.947-16.154,0.977-24.249c0.02-6.252,0.005-12.508,0.001-18.76
						c-0.001-1.017,0.063-2.011-0.76-2.861c-2.324-2.421-3.698-5.381-4.653-8.555c-0.176-0.584-0.277-1.193-0.968-1.804
						c-6.743,2.048-13.629,3.159-20.441,4.551c-4.492,0.923-9.069,1.688-13.714,1.565c-1.329-0.034-2.659-0.023-3.99,0
						c-4.931,0.076-9.821-0.299-14.688-1.07c-4.753-0.754-9.513-1.459-14.22-2.463c-0.979-0.214-1.246-0.037-1.521,0.99
						c-1.165,4.392-3.621,7.977-6.71,11.213c-2.003,2.107-4.272,3.83-6.79,5.23c-0.918,0.512-1.29,1.146-1.304,2.195
						c-0.057,5.534-0.234,11.063-0.255,16.597c-0.016,4.913,0.112,9.836,0.189,14.751c0.028,1.842,0.055,3.689,0.148,5.528
						c0.563,10.642,1.165,21.275,1.684,31.915c0.078,1.537,0.686,2.403,2.044,3.041c4.021,1.888,8.177,3.253,12.604,3.726
						c4.321,0.469,3.481,1.023,4.547-3.158c1.185-4.661,1.966-9.41,3.446-14.01c2.946-9.155,5.726-18.37,8.799-27.489
						c2.58-7.664,4.808-15.438,6.895-23.26c0.447-1.678,0.899-3.38,1.948-4.811c1.133-1.542,2.518-2.634,4.609-2.443
						c1.22,0.117,2.454,0.064,3.675,0.139c1.495,0.091,2.764,0.669,3.751,1.828c0.807,0.951,1.474,1.984,1.925,3.133
						c1.756,4.492,3.295,9.032,3.789,13.878c0.339,3.359,0.653,6.741,1.291,10.053c1.567,8.175,1.979,16.468,2.902,24.708
						c0.586,5.191,1.224,10.379,1.742,15.572c0.13,1.32,0.736,2.044,1.869,2.518c4.735,1.992,9.575,1.891,14.468,0.736
						c1.115-0.27,1.672-0.957,1.873-2.123C550.656,284.086,551.392,280.683,552.029,277.265L552.029,277.265L552.029,277.265z
						 M545.031,303.039c0.124-0.566,0.532-1.111,0.913-1.578c2.014-2.498,2.503-5.48,3.025-8.747
						c-1.936-0.068-3.628,0.349-5.328,0.516c-1.868,0.182-3.671-0.25-5.497-0.476c-1.737-0.224-3.305-1.041-5.509-1.795
						c0.739,4.141,1.552,7.812,2.924,11.334c1.098,2.814,2.092,3.416,5.119,3.285c0.408-0.019,0.812-0.1,1.215-0.15
						C543.398,305.236,544.661,304.786,545.031,303.039L545.031,303.039L545.031,303.039z M479.916,307.84
						c1.095-0.436,1.893-1.195,2.362-2.28c1.248-2.915,2.274-5.911,2.953-9.014c0.209-0.945-0.032-1.234-1.103-1.341
						c-5.355-0.55-10.396-2.098-15.113-4.697c-0.157-0.088-0.386-0.036-0.957-0.071c0,4.219-0.047,8.296,0.033,12.38
						c0.019,0.992,0.39,2,0.71,2.96c0.301,0.913,0.954,1.543,1.907,1.848c0.773,0.243,1.771,0.351,2.242,0.883
						c1.319,1.497,2.629,1.108,4.103,0.427C477.977,308.507,478.966,308.221,479.916,307.84L479.916,307.84L479.916,307.84z
						 M461.443,182.594c1.687-0.612,3.155-1.475,3.976-3.161c0.854-1.743,1.866-3.456,0.909-5.509
						c-0.121-0.266-0.117-0.614-0.086-0.913c0.136-1.251-0.531-2.147-1.295-3.004c-1.364-1.527-2.753-3.031-4.113-4.565
						c-1.362-1.529-2.859-2.942-3.958-4.692c-2.661-4.257-2.376-8.726,0.997-12.417c0.92-1.004,1.004-1.879,0.648-3.036
						c-0.758-2.458-1.798-4.795-3.117-6.998c-2.479-4.163-6.406-6.179-10.911-7.328c-1.187-0.308-2.187,0.014-3.14,0.774
						c-4.962,3.948-9.162,8.526-11.624,14.451c-2.993,7.205-2.906,14.353,0.812,21.329c1.404,2.642,3.179,5.022,5.264,7.152
						c5.298,5.422,11.644,8.61,20.057,8.953C457.255,183.498,459.394,183.348,461.443,182.594L461.443,182.594L461.443,182.594z
						 M463.581,189.332c0.094-0.545,0.398-1.201-0.38-1.704c-2.43,0.913-4.952,1.691-7.661,1.687
						c-0.963-0.003-1.165,0.331-1.137,1.382c0.046,1.857,0.419,3.664,0.932,5.432c1.134,3.925,2.19,7.881,4.356,11.417
						c0.163,0.261,0.263,0.608,0.009,0.83c-0.424,0.37-0.764,0.041-0.983-0.297c-2.07-3.167-4.017-6.398-4.988-10.122
						c-0.649-2.486-1.143-4.982-1.14-7.563c0-0.832-0.389-1.371-1.222-1.48c-2.333-0.314-4.537-1.153-7.248-1.967
						c0.592,3.29,1.165,6.084,1.586,8.896c1.224,8.212,4.758,15.358,9.87,21.813c1.25,1.574,2.823,2.644,4.558,3.545
						c0.693,0.355,1.258,0.067,1.296-0.684c0.119-2.242,0.229-4.488,0.285-6.737C461.924,205.596,462.22,197.426,463.581,189.332
						L463.581,189.332L463.581,189.332z M450.297,97c-1.365,2.974-2.659,5.982-3.889,9.008c-1.542,3.805-2.709,7.727-3.37,11.777
						c-0.371,2.303-0.678,4.615-0.736,7.247c2.168-1.007,4.07-1.957,6.029-2.776c1.195-0.498,1.648-1.279,1.807-2.548
						c0.827-6.592,3.236-12.649,6.431-18.425c0.198-0.351,0.452-0.677,0.723-0.98c0.119-0.133,0.418-0.283,0.525-0.222
						c0.298,0.161,0.304,0.495,0.206,0.795c-0.097,0.292-0.26,0.56-0.389,0.833c-1.919,4.083-3.416,8.329-4.736,12.627
						c-0.542,1.757-0.823,3.588-1.193,5.39c-0.104,0.512,0.257,0.718,0.708,0.753c0.2,0.011,0.411-0.037,0.597-0.104
						c3.479-1.21,6.962-2.403,10.585-3.125c0.583-0.116,0.921-0.513,0.975-1.036c0.12-1.23,0.76-2.125,1.783-2.685
						c1.001-0.538,1.038-1.37,1.028-2.324c-0.04-4.093,0-8.184,0.461-12.265c0.24-2.108,0.276-4.24,0.411-6.467
						c-0.768,0.118-1.357,0.201-1.949,0.292c-0.505,0.077-1.012,0.219-1.517,0.216c-0.498-0.008-1.01-0.115-1.486-0.265
						c-0.427-0.136-0.657-0.552-0.572-0.966c0.051-0.26,0.336-0.61,0.576-0.664c1.764-0.402,3.544-0.744,5.36-1.114
						c0.193-1.122,0.391-2.126,0.527-3.134c0.037-0.269-0.101-0.563-0.181-0.96c-3.021,0.017-5.922,0.378-8.778,1.222
						c-1.506,0.441-2.817,1.146-4.011,2.158C453.675,91.407,451.675,93.979,450.297,97L450.297,97L450.297,97z M471.261,115.553
						c-0.086,0.725,0.132,1.178,0.819,1.416c3.25,1.111,5.473,3.505,7.563,6.061c2.104,2.573,3.58,5.496,4.66,8.604
						c1.752,5.05,2.841,10.254,3.217,15.593c0.239,3.386,0.019,6.775-0.898,10.05c-2.393,8.58-6.813,15.744-14.61,20.478
						c-0.729,0.444-1.274,0.969-1.522,1.824c-0.487,1.701-1.454,3.169-2.581,4.502c-0.773,0.913-1.171,1.879-1.16,3.061
						c0.009,0.924-0.019,1.842-0.057,2.766c-0.031,0.842,0.321,1.276,1.173,1.484c3.081,0.75,6.131,1.639,9.224,2.329
						c6.599,1.476,13.274,2.469,19.983,3.323c7.966,1.006,15.917,1.162,23.894,0.329c1.528-0.157,1.677-0.337,1.799-1.902
						c0.274-3.369,0.477-6.739,0.8-10.104c0.841-8.66,1.614-17.338,1.709-26.043c0.052-5.016,0.025-10.035-0.462-15.044
						c-0.517-5.296-0.957-10.612-0.833-15.948c0.02-0.801,0.002-1.598,0.002-3.205c-2.581,2.271-4.553,4.03-6.549,5.758
						c-2.478,2.141-4.938,4.31-7.477,6.376c-1.104,0.899-2.375,1.596-3.595,2.349c-1.376,0.846-2.677,0.701-3.99-0.261
						c-2.404-1.756-4.739-3.596-6.868-5.671c-7.791-7.57-15.359-15.35-22.383-23.646c-0.313-0.372-0.558-0.902-1.235-0.559
						C471.681,111.486,471.502,113.526,471.261,115.553L471.261,115.553L471.261,115.553z M437.467,54.142
						c2.571,1.026,5.247,1.726,7.941,2.347c6.821,1.585,13.785,1.911,20.73,2.422c8.486,0.625,16.999,0.092,25.498,0.504
						c5.523,0.276,11.052,0.086,16.583,0.579c4.464,0.396,8.997,0.703,13.443-0.479c0.29-0.08,0.607-0.08,0.914-0.07
						c6.155,0.158,12.281-0.524,18.427-0.656c3.579-0.076,7.164-0.355,10.73-0.703c7.132-0.698,14.264-1.473,21.385-2.288
						c3.559-0.418,7.115-0.903,10.604-1.743c0.336-0.081,0.872,0.01,0.792-0.761c-0.935-0.878-2.212-1.262-3.438-1.714
						c-3.95-1.461-8.043-2.388-12.176-3.155c-5.756-1.067-11.612-1.176-17.419-1.781c-2.031-0.214-4.063-0.417-6.431-0.661
						c-0.734,2.91-2.761,4.396-5.162,5.507c-0.466,0.214-0.933,0.428-1.416,0.595c-5.254,1.75-10.592,3.122-16.111,3.797
						c-4.289,0.521-8.594,0.484-12.887,0.711c-9.869,0.531-19.655,0.04-29.325-2.131c-2.099-0.479-4.185-1.027-6.148-1.914
						c-1.533-0.69-2.776-1.668-3.027-3.563c-0.255-1.909-0.337-1.912-2.227-1.846c-1.127,0.046-2.257,0.088-3.376,0.219
						c-6.51,0.762-13.026,1.487-19.522,2.341c-3.652,0.479-7.277,1.165-10.912,1.782c-0.355,0.063-0.856,0.076-0.806,0.85
						C435.001,53.221,436.257,53.656,437.467,54.142L437.467,54.142L437.467,54.142z M474.163,46.283
						c-1.573,0.993-1.515,2.771,0.177,3.612c0.908,0.448,1.898,0.763,2.88,1.032c5.839,1.62,11.79,2.613,17.835,2.956
						c7.48,0.431,14.943,0.069,22.418-0.287c6.916-0.337,13.577-1.801,20.165-3.772c1.384-0.408,2.737-0.875,3.924-1.698
						c1.212-0.831,1.256-1.346,0.554-2.921c-0.201-0.459-0.315-0.97-0.378-1.471c-0.116-0.918-0.301-1.811-0.828-2.584
						c-0.222,0.022-0.461-0.014-0.617,0.083c-4.617,2.821-9.793,3.454-15.03,3.805c-0.387,0.027-0.786-0.135-1.177-0.233
						c-0.067-0.012-0.171-0.157-0.161-0.23c0.023-0.17,0.06-0.434,0.164-0.48c0.374-0.156,0.769-0.285,1.166-0.341
						c3.57-0.481,6.977-1.616,10.405-2.639c1.171-0.346,2.308-0.847,3.418-1.36c0.945-0.432,1.086-0.83,0.657-1.684
						c-1.766-3.492-3.809-6.776-6.779-9.416c-5.217-4.635-11.079-8.056-17.903-9.713c-1.391-0.338-2.773-0.729-4.161-1.063
						c-4.145-1.005-8.298-1.167-12.477-0.203c-4.917,1.13-9.243,3.237-12.616,7.113c-3.523,4.054-6.408,8.492-8.635,13.37
						c-0.296,0.65-0.493,1.344-0.706,2.026c-0.181,0.567,0.056,1.038,0.558,1.274c0.837,0.377,1.696,0.718,2.576,0.984
						c1.661,0.507,3.344,0.959,5.023,1.417c3.963,1.073,8.006,1.726,12.096,2.027c2.967,0.219,5.948,0.286,8.902-0.076
						c4.166-0.506,8.316-1.138,12.471-1.726c0.91-0.127,1.81-0.333,2.722-0.464c0.16-0.024,0.354,0.143,0.526,0.219
						c-0.129,0.253-0.21,0.673-0.406,0.739c-3.202,1.069-6.359,2.375-9.646,3.077c-8.039,1.729-16.078,1.394-24.025-0.776
						c-3.644-1-7.203-2.268-11.117-3.854c0.351,1.385,0.005,2.178-0.87,2.723C474.923,45.967,474.508,46.063,474.163,46.283
						L474.163,46.283L474.163,46.283z M555.833,196.508c-0.009,0-0.021,0-0.031,0c0-1.331,0.022-2.658-0.015-3.986
						c-0.011-0.477-0.412-0.758-0.835-0.598c-0.948,0.37-1.874,0.809-2.771,1.275c-0.376,0.191-0.56,0.628-0.436,1.055
						c0.688,2.374,1.778,4.559,3.232,6.557c0.086,0.115,0.387,0.159,0.539,0.109c0.14-0.046,0.302-0.276,0.304-0.427
						C555.844,199.16,555.833,197.838,555.833,196.508L555.833,196.508L555.833,196.508z M553.484,189.561
						c1.53-0.779,2.309-1.551,2.22-3.451c-0.252-5.527-0.17-11.07-0.367-16.596c-0.143-4.099-0.406-8.195-0.815-12.275
						c-0.665-6.628-1.465-13.237-2.256-19.852c-0.379-3.152-0.859-6.294-1.292-9.439c-0.06-0.418-0.169-0.8-0.639-0.931
						c-0.552,0.2-0.661,0.743-0.875,1.186c-1.297,2.69-3.021,5.11-4.74,7.542c-0.527,0.749-1.106,1.451-1.888,1.991
						c-0.963,0.664-1.867,0.795-2.83,0.091c-1.813-1.333-3.665-2.627-5.438-4.021c-2.257-1.77-4.445-3.628-6.669-5.443
						c-0.303-0.254-0.592-0.61-1.052-0.474c-0.537,0.161-0.409,0.664-0.4,1.025c0.061,2.766,0.086,5.542,0.256,8.297
						c0.228,3.782,0.662,7.556,0.849,11.35c0.538,10.979-0.23,21.925-1.31,32.848c-0.442,4.482-1.02,8.959-1.523,13.434
						c-0.045,0.409-0.058,0.828,0,1.229c0.041,0.291,0.219,0.581,0.593,0.562c0.508-0.024,1.024-0.042,1.519-0.142
						c5.822-1.178,11.641-2.38,17.462-3.557C547.526,192.275,550.538,191.057,553.484,189.561L553.484,189.561L553.484,189.561z
						 M490.993,92.534c0.021,0.54,0.042,1.077,0.06,1.617c-0.006,0.088-0.006,0.177,0.001,0.262l0.006,0.006l0.003,0.002
						c0.006,0,0.006,0,0.008-0.002c0.582,0.032,0.836,0.519,1.182,0.872c2.407,2.475,5.318,4.132,8.557,5.261
						c6.265,2.189,12.282,1.802,18.015-1.663c0.696-0.416,1.38-0.889,1.969-1.445c1.414-1.328,2.316-3.132,3.963-4.251
						c0.218-0.149,0.272-0.53,0.407-0.804c0.522-1.04,1.436-1.479,2.355-1.027c0.537,0.268,1.095,0.621,1.464,1.082
						c2.02,2.519,4.83,3.742,7.74,4.781c4.006,1.44,8.01,1.374,12.039-0.024c3.045-1.052,4.668-3.432,6.399-6.117
						c-0.788-0.107-1.291-0.146-1.783-0.25c-2.568-0.543-4.505-1.896-5.519-4.397c-0.613-1.515-1.101-3.098-1.845-4.551
						c-1.301-2.541-2.543-5.178-5.673-6.051c-0.444-0.121-0.776-0.638-1.17-0.961c-0.391-0.321-0.75-0.752-1.202-0.924
						c-2.445-0.956-4.925-1.227-7.511-0.46c-2.205,0.658-3.846,1.764-4.608,4.059c-0.292,0.878-1.37,0.94-2.017,0.246
						c-0.484-0.523-0.948-1.077-1.365-1.663c-0.634-0.885-1.528-1.387-2.524-1.642c-2.811-0.733-5.64-1.015-8.502-0.218
						c-4.596,1.276-6.528,3.824-5.819,8.585c0.194,1.319,0.391,2.64,0.467,3.965c0.13,2.159-0.655,4.063-2.13,5.592
						c-2.679,2.788-8.351,4.624-11.473,2.016c-0.433-0.361-0.939-0.307-1.416-0.01h-0.002c0.106-0.13,0.217-0.261,0.323-0.391
						c-0.107,0.128-0.222,0.253-0.329,0.383c-0.003-0.089-0.009-0.172-0.01-0.26c0.025-0.555,0.269-1.108,0.007-1.666
						c0,0-0.067-0.064-0.066-0.062c0,0.017,0,0.024,0,0.035c0-0.011-0.001-0.023-0.001-0.038c-0.019,0.027-0.038,0.044-0.054,0.064
						c-0.028-0.005-0.05-0.013-0.066-0.024c0.048-0.207-0.083-0.068,0,0c-0.004,0.015-0.01,0.039-0.019,0.063
						c-0.01,0.029-0.01,0.057,0,0.072c-0.061,0.078-0.064,0.104-0.011,0.07c0,0,0.016-0.015,0.046-0.036
						c0.023,0.003,0.061-0.019,0.085-0.074C490.979,92.553,490.984,92.542,490.993,92.534L490.993,92.534L490.993,92.534z
						 M548.374,111.515c-0.062-0.377-0.307-0.728-0.581-1.335c-2.882,3.125-5.65,6.106-8.856,8.607
						c-3.303,2.575-7.086,4.275-10.967,5.589c0.022,0.798,0.525,1.036,0.921,1.337c3.344,2.521,6.693,5.03,10.05,7.538
						c0.488,0.364,0.985,0.727,1.504,1.052c0.826,0.515,1.253,0.475,1.824-0.305c2.361-3.215,4.684-6.453,5.715-10.404
						c0.282-1.083,0.582-2.167,1.302-3.078c0.338-0.428,0.381-0.906,0.298-1.44C549.169,116.557,548.795,114.034,548.374,111.515
						L548.374,111.515L548.374,111.515z M550.958,103.877c0.504,0.014,1.03-0.028,1.508-0.171c1.665-0.501,3.308-1.084,4.974-1.577
						c4.23-1.248,7.363-3.933,9.834-7.475c1.654-2.375,2.745-5.015,3.53-7.797c0.597-2.119,0.597-4.227,0.284-6.389
						c-0.486-3.36-1.461-6.619-2.504-9.81c-0.783-2.403-0.534-4.618-0.161-6.94c0.086-0.529,0.768-0.943,0.254-1.756
						c-8.985,0.943-18.023,1.983-27.431,2.567c0.437,1.642,0.885,2.905,1.089,4.206c0.211,1.32,0.87,2.197,1.904,2.996
						c3.072,2.385,5.24,5.432,6.453,9.153c0.253,0.776,0.573,1.536,0.92,2.273c0.959,2.044,1.817,2.409,3.874,1.731
						c0.958-0.318,1.93-0.618,2.906-0.881c0.817-0.223,1.145-0.008,1.216,0.785c0.069,0.711,0.077,1.432,0.126,2.146
						c0.416,6.131-2.291,10.647-7.24,13.997c-0.677,0.459-1.4,0.859-2.051,1.348c-0.201,0.154-0.372,0.567-0.31,0.791
						C550.24,103.451,550.49,103.875,550.958,103.877L550.958,103.877L550.958,103.877z M472.28,98.911
						c-0.248,1.82,0.035,3.161,2.061,3.754c0.862,0.248,1.645,0.84,2.396,1.37c4.459,3.156,9.395,5.424,14.332,7.691
						c7.288,3.352,14.897,5.732,22.77,7.26c7.199,1.404,14.077,0.544,20.528-3.021c3.682-2.034,7.21-4.308,10.452-7.014
						c0.628-0.525,1.267-1.045,1.854-1.61c0.281-0.274,0.597-0.64,0.652-0.995c0.121-0.795,0.212-1.663-0.351-2.346
						c-0.463-0.572-1.146-0.281-1.729-0.223c-6.346,0.648-11.925-1.286-16.977-5.003c-0.412-0.302-0.823-0.603-1.524-1.119
						c-2.714,4.281-6.683,6.581-10.953,8.441c-3.168,1.382-6.527,1.807-9.936,1.317c-2.018-0.287-4.015-0.819-5.972-1.408
						c-4.088-1.227-7.118-3.974-9.72-7.201c-0.823-1.023-1.444-2.255-1.938-3.48c-1.114-2.744-0.923-5.48,0.302-8.22
						c1.165,0.455,1.501,1.662,2.546,1.941c2.086,0.554,4.188,1.006,6.364,0.796c3.148-0.303,4.446-1.217,3.914-4.747
						c-0.285-1.907-0.347-3.845-0.306-5.805c0.101-5.087,5.849-10.251,11.065-9.879c4.662,0.329,9.104,1.226,12.231,5.103
						c0.2-0.094,0.317-0.112,0.381-0.182c0.207-0.223,0.392-0.471,0.591-0.696c2.854-3.298,6.229-5.608,10.775-5.71
						c0.207-0.004,0.419,0.019,0.615-0.038c0.183-0.051,0.452-0.132,0.51-0.272c0.351-0.814,0.117-1.617-0.161-2.391
						c-0.2-0.563-0.729-0.68-1.262-0.621c-4.186,0.452-8.388,0.452-12.59,0.462c-0.407,0-0.867-0.042-1.21,0.121
						c-1.26,0.608-2.607,0.49-3.925,0.573c-4.717,0.318-9.411-0.104-14.11-0.365c-8.292-0.462-16.596-0.414-24.896-0.428
						c-0.868,0-1.316,0.428-1.51,1.213c-0.533,2.187-1.194,4.356-1.567,6.567c-0.924,5.56-1.75,11.132-2.551,16.711
						C472.987,92.601,472.712,95.769,472.28,98.911L472.28,98.911L472.28,98.911z M476.331,109.646c0,0,0.004,0.002,0.005,0.002
						c-0.194,0.352-0.44,0.727-0.159,1.111c0.355,0.493,0.766,0.949,1.191,1.391c4.822,5.012,9.604,10.068,14.497,14.999
						c2.806,2.83,5.596,5.689,8.802,8.097c3.6,2.698,3.732,3.299,7.794-0.162c3.348-2.845,6.578-5.836,9.846-8.777
						c0.195-0.171,0.239-0.512,0.38-0.844c-2.198-0.369-4.319-0.667-6.413-1.105c-7.226-1.488-14.262-3.613-21.009-6.617
						c-4.197-1.869-8.397-3.754-12.358-6.112c-0.925-0.552-2.043-0.903-2.57-1.979c0.004-0.002,0.01-0.011,0.012-0.019
						c0,0-0.031-0.031-0.037-0.031c0,0-0.003,0-0.003-0.005c-0.005,0.008-0.012,0.016-0.021,0.023l0,0
						c-0.037,0.029-0.11,0.069-0.121,0.08l0.072-0.029c-0.097,0.102-0.19,0.203-0.291,0.305
						C476.078,109.863,476.207,109.753,476.331,109.646L476.331,109.646L476.331,109.646z M479.06,197.612
						c0.246-0.754,0.008-1.212-0.701-1.401c-3.551-0.972-7.106-1.924-10.658-2.876c-0.629-0.169-0.961,0.091-1.027,0.712
						c-0.03,0.306-0.054,0.613-0.06,0.924c-0.129,5.316-0.258,10.633-0.373,15.956c-0.02,0.592,0.055,1.194,0.115,2.319
						c0.948-0.641,1.5-0.905,1.927-1.315c2.59-2.477,5.089-5.041,7.319-7.858C477.143,202.133,478.298,199.975,479.06,197.612
						L479.06,197.612L479.06,197.612z M478.956,131.097c-2.045-4.278-5.134-7.614-9.175-10.083c-0.552-0.338-1.038-0.57-1.679-0.169
						c-2.198,1.384-4.714,1.952-7.163,2.667c-3.729,1.101-7.451,2.22-11.032,3.748c-0.708,0.308-1.592,0.412-2.066,1.413
						c3.271,1.687,6.579,3.282,8.806,6.358c2.244,3.092,3.599,6.605,4.837,10.265c0.829-0.249,1.496-0.487,2.183-0.648
						c1.099-0.251,2.196-0.575,3.309-0.653c2.135-0.139,3.644,1.692,3.096,3.749c-0.188,0.717-0.281,1.389-0.158,2.102
						c0.745,4.257,0.833,8.553,0.854,12.855c0.012,2.458,0.119,4.91,0.195,7.367c0.018,0.401,0.078,0.812,0.148,1.216
						c0.106,0.562,0.725,0.849,1.154,0.532c0.327-0.243,0.643-0.506,0.939-0.784c4.689-4.39,7.705-9.77,9.275-15.972
						c0.201-0.787,0.329-1.617,0.333-2.429c0.024-2.353,0.101-4.719-0.09-7.063C482.314,140.541,481.139,135.674,478.956,131.097
						L478.956,131.097L478.956,131.097z M466.221,161.471c-0.017-2.963,0.063-5.913,0.398-8.867c0.325-2.857-0.248-3.23-2.998-2.266
						c-0.097,0.031-0.188,0.091-0.287,0.111c-1.038,0.262-1.479,0.943-1.541,1.997c-0.047,0.806-0.197,1.62-0.42,2.396
						c-0.113,0.412-0.479,0.646-0.818,0.081c-0.094-0.157-0.255-0.268-0.383-0.398c-0.122,0.126-0.325,0.241-0.352,0.385
						c-0.179,0.978,0.211,1.802,0.768,2.565c1.502,2.048,3.166,3.951,5.479,6.037C466.155,162.456,466.227,161.964,466.221,161.471
						L466.221,161.471L466.221,161.471z M556.48,133.961c0.23,1.196,0.503,1.4,1.618,1.188c3.012-0.58,5.933-1.509,8.847-2.457
						c0.854-0.273,1.356-0.781,1.498-1.716c0.206-1.315,0.415-2.624,0.364-3.966c-0.264-4.702-0.962-9.332-2.65-13.766
						c-0.882-2.308-2.133-4.406-3.674-6.333c-0.435-0.536-0.934-0.814-1.585-0.478c-2.566,1.31-5.37,1.943-8.068,2.867
						c-1.032,0.348-1.147,0.539-0.938,1.543c0.739,3.492,1.536,6.977,2.224,10.475C554.948,125.521,555.682,129.749,556.48,133.961
						L556.48,133.961L556.48,133.961z M588.6,118.586c4.729-4.801,7.927-10.439,9.427-16.979c1.069-4.667,1.015-9.384-0.691-13.912
						c-3.053-8.091-8.012-14.73-15.346-19.451c-1.026-0.66-2.147-1.23-3.302-1.61c-1.648-0.541-3.354-0.956-5.126-0.632
						c-0.872,0.159-1.255,0.64-1.158,1.501c0.145,1.218,0.42,2.404,0.886,3.559c1.19,2.961,2.06,6.034,2.34,9.204
						c0.804,9.044-2.621,16.402-9.229,22.416c-0.818,0.743-1.694,1.413-2.68,2.22c6.506,7.241,8.204,15.951,8.412,25.093
						c0.874,0.366,1.449-0.218,2.044-0.53l0,0C579.576,126.62,584.316,122.926,588.6,118.586z"/>
				</g>
			</g>
		</g>
		<g>
			<g>
				<g>
					<path fill="#149CF4" d="M78.825,278.814c-9.684,0-18.94-2.28-27.512-6.776c-8.584-4.501-15.57-10.697-20.765-18.416
						c-6.562-9.841-9.887-22.986-9.887-39.077v-90.903c0-1.104,0.896-2,2-2h41.513c1.104,0,2,0.896,2,2v40.398h16.647
						c1.104,0,2,0.896,2,2v43.845c0,1.104-0.896,2-2,2H66.2c0.188,7.207,1.422,12.222,3.673,14.924
						c2.363,2.836,6.981,4.273,13.726,4.273c1.104,0,2,0.896,2,2v43.622c0,1.078-0.854,1.962-1.932,1.999
						C81.466,278.778,79.883,278.814,78.825,278.814z"/>
					<path fill="#4F2A0B" d="M64.174,123.642v42.398h18.647v43.845H64.174c0,8.806,1.386,14.873,4.162,18.204
						c2.775,3.329,7.862,4.993,15.262,4.993v43.622c-2.148,0.073-3.737,0.11-4.773,0.11c-9.398,0-18.258-2.181-26.583-6.548
						c-8.325-4.365-15.004-10.285-20.035-17.761c-6.364-9.545-9.546-22.197-9.546-37.961v-90.903H64.174 M64.174,119.642H22.661
						c-2.209,0-4,1.791-4,4v90.903c0,16.493,3.438,30.012,10.218,40.18c5.392,8.012,12.624,14.428,21.506,19.085
						c8.861,4.648,18.43,7.005,28.44,7.005c1.081,0,2.687-0.037,4.91-0.112c2.155-0.074,3.864-1.842,3.864-3.998v-43.622
						c0-2.209-1.791-4-4-4c-6.036,0-10.251-1.229-12.189-3.554c-1.255-1.506-2.715-4.733-3.124-11.644h14.536c2.209,0,4-1.791,4-4
						V166.04c0-2.209-1.791-4-4-4H68.174v-38.398C68.174,121.433,66.383,119.642,64.174,119.642L64.174,119.642z"/>
				</g>
				<g>
					<path fill="#149CF4" d="M154.747,279.37c-16.529,0-30.858-5.89-42.587-17.507c-11.735-11.618-17.686-25.82-17.686-42.212
						c0-16.689,5.955-30.934,17.7-42.336c11.729-11.386,26.388-17.159,43.572-17.159c16.166,0,30.218,5.894,41.767,17.518
						c11.543,11.62,17.396,25.744,17.396,41.978c0,16.463-5.932,30.684-17.631,42.269
						C185.584,273.499,171.275,279.37,154.747,279.37z M154.636,205.112c-3.909,0-7.142,1.38-9.883,4.22
						c-2.759,2.856-4.1,6.269-4.1,10.43c0,4.089,1.359,7.483,4.155,10.377c2.777,2.876,5.992,4.274,9.827,4.274
						c3.909,0,7.16-1.398,9.939-4.274c2.796-2.896,4.155-6.29,4.155-10.377c0-4.16-1.341-7.572-4.101-10.431
						C161.889,206.492,158.621,205.112,154.636,205.112z"/>
					<path fill="#4F2A0B" d="M155.746,162.156c15.687,0,29.136,5.643,40.348,16.927c11.21,11.285,16.815,24.807,16.815,40.568
						c0,15.984-5.68,29.601-17.038,40.848c-11.36,11.248-25.067,16.871-41.124,16.871c-16.058,0-29.785-5.643-41.18-16.928
						c-11.396-11.282-17.093-24.88-17.093-40.791c0-16.206,5.697-29.838,17.093-40.901
						C124.962,167.688,139.022,162.156,155.746,162.156 M154.636,236.413c4.44,0,8.231-1.628,11.378-4.885
						c3.144-3.256,4.717-7.176,4.717-11.767c0-4.662-1.555-8.601-4.662-11.819c-3.107-3.22-6.92-4.83-11.433-4.83
						c-4.439,0-8.213,1.61-11.322,4.83c-3.107,3.219-4.661,7.157-4.661,11.819c0,4.591,1.571,8.511,4.717,11.767
						C146.515,234.785,150.269,236.413,154.636,236.413 M155.746,158.156c-17.722,0-32.85,5.963-44.965,17.724
						c-12.147,11.793-18.307,26.521-18.307,43.771c0,16.945,6.15,31.625,18.278,43.634c12.117,12,26.919,18.085,43.994,18.085
						c17.073,0,31.856-6.065,43.938-18.029c12.092-11.974,18.224-26.673,18.224-43.689c0-16.781-6.049-31.378-17.978-43.387
						C186.994,164.249,172.464,158.156,155.746,158.156L155.746,158.156z M154.636,232.413c-3.265,0-6.008-1.198-8.388-3.663
						c-2.419-2.504-3.594-5.443-3.594-8.988c0-3.617,1.157-6.575,3.539-9.041c2.344-2.428,5.106-3.608,8.444-3.608
						c3.413,0,6.211,1.18,8.555,3.607c2.382,2.469,3.54,5.426,3.54,9.042c0,3.544-1.176,6.483-3.594,8.988
						C160.755,231.215,157.974,232.413,154.636,232.413L154.636,232.413z"/>
				</g>
				<g>
					<path fill="#149CF4" d="M279.507,280.923c-16.311,0-29.636-6.029-39.604-17.92c-7.75-9.283-11.679-22.263-11.679-38.579V166.04
						c0-1.104,0.896-2,2-2h41.514c1.104,0,2,0.896,2,2v62.491c0,6.552,2.972,7.435,5.879,7.435c2.853,0,5.77-0.883,5.77-7.435
						V166.04c0-1.104,0.896-2,2-2H328.9c1.104,0,2,0.896,2,2v61.715c0,14.824-5.006,27.521-14.88,37.741
						C306.127,275.732,293.843,280.923,279.507,280.923z"/>
					<path fill="#4F2A0B" d="M328.9,166.04v61.715c0,14.356-4.773,26.472-14.319,36.352c-9.546,9.878-21.238,14.816-35.075,14.816
						c-15.762,0-28.453-5.731-38.071-17.205c-7.475-8.953-11.211-21.383-11.211-37.294V166.04h41.514v62.491
						c0,6.291,2.625,9.435,7.879,9.435c5.179,0,7.77-3.144,7.77-9.435V166.04H328.9 M328.9,162.04h-41.513c-2.209,0-4,1.791-4,4
						v62.491c0,5.435-2.09,5.435-3.77,5.435c-1.818,0-3.879,0-3.879-5.435V166.04c0-2.209-1.791-4-4-4h-41.514c-2.209,0-4,1.791-4,4
						v58.384c0,16.798,4.084,30.208,12.141,39.857c10.371,12.372,24.211,18.642,41.142,18.642c14.899,0,27.667-5.396,37.951-16.037
						c10.247-10.605,15.442-23.771,15.442-39.131V166.04C332.9,163.831,331.109,162.04,328.9,162.04L328.9,162.04z"/>
				</g>
				<g>
					<path fill="#149CF4" d="M353.098,277.15c-1.104,0-2-0.896-2-2v-60.493c0-16.427,4.584-29.747,13.625-39.59
						c9.083-9.895,21.343-14.911,36.438-14.911c3.341,0,7.703,0.419,12.963,1.245c0.973,0.152,1.69,0.991,1.69,1.976v44.399
						c0,0.711-0.377,1.368-0.991,1.727c-0.312,0.183-0.66,0.273-1.009,0.273c-0.338,0-0.677-0.086-0.982-0.258
						c-2.571-1.449-4.892-2.185-6.898-2.185c-4.001,0-9.321,1.588-9.321,15.314v52.502c0,1.104-0.896,2-2,2H353.098z"/>
					<path fill="#4F2A0B" d="M401.16,162.156c3.255,0,7.473,0.407,12.653,1.221v44.399c-2.886-1.627-5.513-2.442-7.88-2.442
						c-7.547,0-11.321,5.771-11.321,17.314v52.502h-41.513v-60.493c0-15.984,4.365-28.729,13.098-38.237
						C374.926,166.91,386.581,162.156,401.16,162.156 M401.16,158.156c-15.678,0-28.433,5.234-37.911,15.559
						c-9.39,10.224-14.151,23.999-14.151,40.942v60.493c0,2.209,1.791,4,4,4h41.513c2.209,0,4-1.791,4-4v-52.502
						c0-13.314,5.13-13.314,7.321-13.314c1.658,0,3.648,0.648,5.916,1.927c0.61,0.344,1.288,0.516,1.964,0.516
						c0.698,0,1.395-0.182,2.018-0.546c1.228-0.718,1.982-2.032,1.982-3.454v-44.399c0-1.97-1.434-3.646-3.379-3.952
						C408.995,158.571,404.653,158.156,401.16,158.156L401.16,158.156z"/>
				</g>
			</g>
			<g>
				<g>
					<path fill="#B8F411" d="M651.746,280.149c-1.104,0-2-0.896-2-2v-94.902c0-6.87-0.987-9.924-1.814-11.276
						c-1.026-1.672-2.937-2.485-5.841-2.485c-3.668,0-8.545,1.427-8.545,13.762v16.871h10.987c1.104,0,2,0.896,2,2v39.957
						c0,1.104-0.896,2-2,2h-10.987v34.074c0,1.104-0.896,2-2,2H586.48c-1.104,0-2-0.896-2-2v-96.345
						c0-19.106,5.328-34.199,15.837-44.858c10.515-10.67,25.429-16.08,44.326-16.08c18.262,0,32.017,4.944,40.882,14.695
						c8.816,9.701,13.286,24.737,13.286,44.689v97.898c0,1.104-0.896,2-2,2H651.746z"/>
					<path fill="#4F2A0B" d="M644.643,122.866c17.759,0,30.893,4.682,39.402,14.041c8.51,9.364,12.766,23.809,12.766,43.344v97.898
						h-45.065v-94.902c0-5.918-0.704-10.025-2.108-12.32c-1.407-2.293-3.922-3.441-7.547-3.441c-7.031,0-10.545,5.256-10.545,15.762
						v18.871h12.987v39.957h-12.987v36.074H586.48v-96.345c0-18.647,5.086-33.134,15.261-43.454
						C611.916,128.026,626.218,122.866,644.643,122.866 M644.643,118.866c-19.453,0-34.845,5.611-45.75,16.677
						c-10.89,11.046-16.412,26.61-16.412,46.262v96.345c0,2.209,1.791,4,4,4h45.064c2.209,0,4-1.791,4-4v-32.074h8.987
						c1.316,0,2.484-0.636,3.213-1.617v33.691c0,2.209,1.791,4,4,4h45.065c2.209,0,4-1.791,4-4v-97.898
						c0-20.465-4.645-35.953-13.805-46.034C677.745,124.03,663.492,118.866,644.643,118.866L644.643,118.866z M635.545,198.118
						v-14.871c0-11.762,4.587-11.762,6.545-11.762c3.197,0,3.88,1.113,4.137,1.533c0.455,0.743,1.518,3.234,1.518,10.229v16.488
						c-0.729-0.981-1.897-1.617-3.213-1.617H635.545L635.545,198.118z"/>
				</g>
				<g>
					<path fill="#B8F411" d="M775.618,282.37c-8.537,0-16.978-1.892-25.088-5.622c-8.119-3.734-14.909-8.845-20.183-15.19
						c-9.144-10.974-13.78-25.334-13.78-42.68V126.64c0-1.104,0.896-2,2-2h41.512c1.104,0,2,0.896,2,2v90.685
						c0,13.518,4.538,20.089,13.873,20.089c4.007,0,7.308-1.321,10.092-4.039c2.768-2.702,4.114-5.883,4.114-9.723
						c0-4.012-1.269-7.279-3.88-9.99c-2.592-2.688-5.68-3.994-9.437-3.994c-2.612,0-5.745,1.229-9.311,3.65
						c-0.338,0.229-0.73,0.346-1.124,0.346c-0.321,0-0.642-0.077-0.936-0.232c-0.655-0.347-1.064-1.026-1.064-1.768v-45.732
						c0-1.034,0.789-1.898,1.82-1.992c4.994-0.452,8.684-0.672,11.281-0.672c16.09,0,30.068,5.875,41.545,17.463
						c11.47,11.587,17.285,25.728,17.285,42.031c0,16.688-5.916,30.949-17.583,42.388
						C807.096,276.576,792.583,282.37,775.618,282.37z"/>
					<path fill="#4F2A0B" d="M760.079,126.64v90.685c0,14.727,5.29,22.089,15.873,22.089c4.513,0,8.343-1.536,11.489-4.607
						c3.144-3.069,4.717-6.788,4.717-11.154c0-4.514-1.481-8.307-4.439-11.378c-2.961-3.069-6.587-4.606-10.877-4.606
						c-3.036,0-6.513,1.332-10.435,3.996v-45.732c4.884-0.442,8.583-0.664,11.101-0.664c15.612,0,28.986,5.625,40.124,16.87
						c11.136,11.25,16.706,24.792,16.706,40.624c0,16.207-5.662,29.86-16.983,40.96c-11.323,11.099-25.235,16.649-41.735,16.649
						c-8.287,0-16.372-1.814-24.252-5.439c-7.881-3.625-14.375-8.508-19.481-14.651c-8.878-10.655-13.318-24.456-13.318-41.401
						V126.64H760.079 M760.079,122.64h-41.512c-2.209,0-4,1.791-4,4v92.238c0,17.826,4.793,32.617,14.245,43.962
						c5.463,6.573,12.491,11.865,20.883,15.725c8.374,3.853,17.096,5.806,25.923,5.806c17.507,0,32.49-5.986,44.535-17.793
						c12.066-11.829,18.184-26.57,18.184-43.816c0-16.85-6.01-31.464-17.863-43.438c-11.867-11.982-26.323-18.057-42.967-18.057
						c-2.658,0-6.407,0.223-11.462,0.681c-0.733,0.066-1.405,0.327-1.966,0.729V126.64
						C764.079,124.431,762.288,122.64,760.079,122.64L760.079,122.64z M766.405,215.663c0.788,0,1.573-0.232,2.248-0.691
						c3.229-2.192,5.983-3.305,8.187-3.305c3.186,0,5.802,1.106,7.999,3.384c2.232,2.317,3.318,5.132,3.318,8.601
						c0,3.273-1.148,5.985-3.511,8.292c-2.392,2.335-5.236,3.47-8.695,3.47c-5.528,0-11.873-2.056-11.873-18.089v-2.407
						c0.144,0.103,0.296,0.197,0.455,0.281C765.121,215.509,765.764,215.663,766.405,215.663L766.405,215.663z"/>
				</g>
				<g>
					<path fill="#B8F411" d="M852.54,280.149c-1.104,0-2-0.896-2-2V167.485c0-1.104,0.896-2,2-2h41.513c1.104,0,2,0.896,2,2v110.664
						c0,1.104-0.896,2-2,2H852.54z"/>
					<path fill="#4F2A0B" d="M894.053,167.485v110.664H852.54V167.485H894.053 M894.053,163.485H852.54c-2.209,0-4,1.791-4,4
						v110.664c0,2.209,1.791,4,4,4h41.513c2.209,0,4-1.791,4-4V167.485C898.053,165.276,896.262,163.485,894.053,163.485
						L894.053,163.485z"/>
				</g>
				<g>
					<path fill="#B8F411" d="M873.406,159.829c-6.572,0-12.059-2.054-16.309-6.103c-4.277-4.075-6.446-9.342-6.446-15.655
						c0-5.939,2.278-11.147,6.771-15.48c4.476-4.312,9.853-6.497,15.984-6.497c6.132,0,11.51,2.186,15.984,6.496
						c4.494,4.334,6.772,9.542,6.772,15.481c0,6.314-2.169,11.581-6.449,15.655C885.468,157.775,879.98,159.829,873.406,159.829z"/>
					<path fill="#4F2A0B" d="M873.406,118.094c5.623,0,10.49,1.98,14.597,5.937c4.106,3.96,6.16,8.642,6.16,14.041
						c0,5.771-1.942,10.508-5.828,14.207c-3.884,3.703-8.863,5.551-14.929,5.551c-6.068,0-11.043-1.848-14.93-5.551
						c-3.883-3.699-5.826-8.436-5.826-14.207c0-5.399,2.053-10.081,6.16-14.041C862.917,120.074,867.783,118.094,873.406,118.094
						 M873.406,114.094c-6.666,0-12.51,2.374-17.371,7.056c-4.901,4.726-7.385,10.419-7.385,16.922
						c0,6.882,2.377,12.637,7.067,17.104c4.634,4.415,10.586,6.654,17.688,6.654c7.105,0,13.057-2.239,17.689-6.656
						c4.689-4.464,7.067-10.219,7.067-17.102c0-6.503-2.484-12.195-7.384-16.92C885.918,116.468,880.073,114.094,873.406,114.094
						L873.406,114.094z"/>
				</g>
			</g>
		</g>
		<g>
			<g opacity="0.7">
				<path d="M690.033,330.827c-2.344-1.847-5.025-2.783-7.97-2.783h0c-0.466,0-0.945,0.024-1.422,0.072
					c-3.539,0.358-6.438,1.91-8.622,4.612c-2.173,2.688-3.103,5.78-2.76,9.19c0.398,3.953,2.044,6.987,4.892,9.021
					c2.305,1.644,4.903,2.477,7.724,2.477c0.489,0,0.992-0.026,1.493-0.077c3.336-0.334,6.169-1.759,8.42-4.235
					c2.344-2.577,3.334-5.856,2.942-9.75C694.379,335.876,692.799,333.007,690.033,330.827z"/>
				<path d="M771.369,299.022c-0.393-3.9-0.885-7.025-1.501-9.557c-0.663-2.718-1.777-5.239-3.312-7.495
					c-2.47-3.916-5.925-6.833-10.271-8.669c-3.308-1.396-6.911-2.104-10.709-2.104c-1.075,0-2.184,0.058-3.297,0.169
					c-5.137,0.518-9.681,2.034-13.502,4.511c-1.961,1.271-3.809,2.847-5.532,4.712c-0.207-0.414-0.435-0.81-0.682-1.188
					c-1.227-1.863-2.788-3.231-4.645-4.07c-1.446-0.652-3.001-0.984-4.624-0.984c-0.413,0-0.836,0.021-1.258,0.065
					c-3.382,0.339-6.129,1.834-7.939,4.319c-1.749,2.405-2.43,5.672-2.023,9.711l4.913,48.801c0.416,4.131,1.833,7.324,4.215,9.496
					c2.152,1.968,4.716,2.968,7.618,2.968c0.425,0,0.862-0.022,1.299-0.065c3.484-0.353,6.27-1.86,8.28-4.48
					c1.961-2.563,2.736-6.029,2.305-10.305l-2.129-21.152c-0.806-8-0.582-11.543-0.243-13.109c0.689-2.591,1.91-4.63,3.729-6.232
					c1.803-1.586,3.827-2.474,6.19-2.713c0.561-0.057,1.1-0.085,1.603-0.085c3.315,0,4.499,1.197,5.101,2.099
					c1.547,2.32,2.587,6.028,3.089,11.021l2.833,28.144c0.414,4.121,1.831,7.314,4.211,9.49c2.147,1.965,4.732,2.961,7.681,2.961
					c0.447,0,0.908-0.024,1.37-0.072c3.411-0.339,6.244-1.912,8.186-4.545c1.891-2.572,2.632-6.009,2.208-10.219L771.369,299.022z"
					/>
				<path d="M848.188,308.889c-1.549-1.1-3.377-1.655-5.44-1.655c-0.398,0-0.81,0.021-1.225,0.063
					c-2.428,0.243-4.349,1.083-5.708,2.493l-0.052,0.054l-0.05,0.057c-1.951,2.218-3.469,3.896-4.641,5.131
					c-1.115,1.179-2.357,2.308-3.696,3.359c-1.221,0.967-2.513,1.718-3.848,2.241c-1.351,0.531-2.915,0.889-4.655,1.066
					c-0.486,0.048-0.979,0.074-1.457,0.074c-1.917,0-3.683-0.384-5.397-1.173c-2.116-0.974-3.864-2.546-5.346-4.807
					c-0.983-1.499-1.73-3.217-2.235-5.13l29.848-3.006c5.045-0.507,8.864-1.635,11.675-3.449c2.377-1.529,5.068-4.814,4.37-11.761
					c-0.515-5.107-2.359-10.038-5.48-14.653c-3.161-4.671-7.603-8.331-13.203-10.879c-4.334-1.971-9.241-2.972-14.582-2.972
					c-1.532,0-3.125,0.083-4.737,0.244c-5.514,0.556-10.543,1.968-14.949,4.197c-4.479,2.271-8.204,5.31-11.072,9.034
					c-2.848,3.701-4.889,8.036-6.067,12.885c-1.157,4.767-1.471,9.891-0.932,15.23c1.152,11.449,5.48,20.361,12.861,26.484
					c6.193,5.135,14.063,7.738,23.393,7.738c1.803,0,3.689-0.098,5.608-0.29c5.135-0.517,9.707-1.667,13.59-3.419
					c3.887-1.751,7.134-3.839,9.647-6.205c2.55-2.401,4.442-4.908,5.624-7.449c1.273-2.736,1.787-5.113,1.571-7.266
					C851.26,311.736,849.557,309.863,848.188,308.889z"/>
				<path d="M907.077,318.974c-0.251-2.481-1.388-4.604-3.288-6.14c-1.667-1.347-3.509-2.03-5.474-2.03
					c-0.279,0-0.562,0.016-0.842,0.044c-1.193,0.12-2.7,0.468-4.608,1.06c-1.793,0.562-2.824,0.748-3.374,0.805
					c-0.219,0.022-0.437,0.034-0.634,0.034c-0.7,0-0.922-0.143-0.924-0.144c-0.375-0.336-0.646-0.856-0.818-1.588
					c-0.295-1.252-0.572-3.147-0.822-5.63l-2.793-27.735c3.881-0.403,6.82-1.266,8.985-2.636c2.787-1.758,4.129-4.664,3.776-8.181
					c-0.272-2.709-1.553-4.967-3.705-6.53c-1.698-1.228-3.821-1.849-6.315-1.849c-0.541,0-1.107,0.029-1.686,0.086l-2.95,0.298
					l-0.825-8.189c-0.312-3.097-0.726-5.449-1.265-7.192c-0.678-2.192-1.958-4.006-3.805-5.385
					c-2.239-1.676-4.684-2.525-7.265-2.525c-0.394,0-0.795,0.021-1.192,0.059c-2.117,0.213-4.032,0.924-5.69,2.111
					c-1.661,1.193-2.902,2.687-3.693,4.441c-0.746,1.583-1.127,3.452-1.112,5.508c0.009,1.669,0.153,3.872,0.441,6.73l0.693,6.883
					c-2.695,0.482-4.832,1.518-6.364,3.088c-1.927,1.972-2.803,4.47-2.528,7.223c0.276,2.715,1.569,4.98,3.739,6.558
					c1.71,1.242,3.86,1.873,6.39,1.873c0.212,0,0.429-0.005,0.649-0.013l2.932,29.126c0.563,5.584,1.463,9.931,2.751,13.288
					c1.471,3.826,4.08,6.715,7.755,8.586c2.614,1.336,5.959,2.014,9.938,2.014c1.35,0,2.803-0.077,4.321-0.229
					c6.205-0.627,10.831-1.917,14.145-3.942C906.643,325.783,907.359,321.787,907.077,318.974z"/>
			</g>
			<g>
				<g>
					<path fill="#13107A" d="M673.753,342.645c-2.387,0-4.585-0.705-6.535-2.097c-2.358-1.683-3.725-4.231-4.062-7.574
						c-0.287-2.858,0.494-5.454,2.32-7.717c1.832-2.267,4.269-3.569,7.243-3.87c0.413-0.041,0.816-0.061,1.212-0.061
						c2.483,0,4.745,0.79,6.722,2.35c2.318,1.821,3.643,4.224,3.937,7.139c0.331,3.292-0.488,6.045-2.433,8.184
						c-1.9,2.092-4.294,3.296-7.117,3.58C674.606,342.622,674.176,342.645,673.753,342.645z"/>
					<path fill="#00FF00" d="M673.933,322.825c2.146,0,4.077,0.675,5.793,2.028c1.996,1.568,3.121,3.606,3.373,6.111
						c0.288,2.867-0.396,5.206-2.05,7.024c-1.653,1.819-3.704,2.85-6.158,3.097c-0.385,0.039-0.764,0.059-1.137,0.059
						c-2.079,0-3.967-0.606-5.664-1.817c-2.001-1.429-3.147-3.601-3.44-6.504c-0.247-2.462,0.416-4.668,1.995-6.624
						c1.577-1.952,3.654-3.06,6.228-3.32C673.231,322.844,673.585,322.825,673.933,322.825 M673.933,319.825L673.933,319.825
						c-0.444,0-0.9,0.023-1.355,0.068c-3.396,0.344-6.175,1.831-8.267,4.42c-2.083,2.582-2.974,5.545-2.646,8.81
						c0.382,3.792,1.957,6.701,4.682,8.646c2.209,1.577,4.701,2.376,7.407,2.376c0.472,0,0.957-0.024,1.44-0.074
						c3.201-0.322,5.918-1.689,8.076-4.063c2.242-2.466,3.189-5.609,2.814-9.342c-0.336-3.337-1.852-6.086-4.504-8.17
						C679.335,320.725,676.761,319.825,673.933,319.825L673.933,319.825z"/>
				</g>
				<g>
					<path fill="#13107A" d="M709.926,339.012c-2.387,0-4.498-0.822-6.275-2.443c-2-1.821-3.198-4.571-3.561-8.173l-4.809-47.771
						c-0.353-3.511,0.203-6.302,1.652-8.294c1.492-2.047,3.688-3.229,6.529-3.516c0.355-0.036,0.704-0.054,1.047-0.054
						c1.34,0,2.62,0.271,3.806,0.807c1.51,0.684,2.787,1.809,3.799,3.345c0.686,1.047,1.191,2.277,1.509,3.675
						c2.116-2.748,4.462-4.964,7.003-6.61c3.503-2.27,7.688-3.662,12.438-4.14c1.032-0.104,2.061-0.157,3.057-0.157
						c3.482,0,6.777,0.646,9.793,1.92c3.936,1.661,7.059,4.304,9.282,7.854c1.369,1.999,2.386,4.292,2.989,6.766
						c0.573,2.352,1.054,5.416,1.428,9.11l3.096,30.761c0.371,3.677-0.243,6.631-1.826,8.78c-1.622,2.199-3.903,3.459-6.779,3.745
						c-0.393,0.041-0.782,0.061-1.163,0.061c-2.433,0-4.563-0.819-6.329-2.437c-2-1.831-3.198-4.579-3.559-8.166l-2.774-27.552
						c-0.52-5.178-1.634-9.076-3.312-11.589c-1.274-1.909-3.386-2.837-6.455-2.837c-0.551,0-1.139,0.031-1.748,0.092
						c-2.689,0.272-4.994,1.283-7.045,3.09c-2.036,1.792-3.451,4.157-4.205,7.029c-0.519,2.323-0.454,6.849,0.206,13.396
						l2.084,20.709c0.375,3.725-0.264,6.698-1.901,8.837c-1.668,2.172-3.986,3.418-6.89,3.706
						C710.647,338.993,710.283,339.012,709.926,339.012z"/>
					<path fill="#00FF00" d="M736.121,267.179c3.296,0,6.365,0.602,9.21,1.803c3.664,1.547,6.528,3.97,8.595,7.269
						c1.306,1.909,2.24,4.016,2.803,6.325c0.563,2.307,1.025,5.277,1.393,8.906l3.096,30.76c0.334,3.312-0.179,5.891-1.541,7.74
						c-1.364,1.85-3.269,2.898-5.72,3.143c-0.345,0.035-0.684,0.053-1.014,0.053c-2.057,0-3.83-0.683-5.316-2.043
						c-1.727-1.581-2.754-3.981-3.079-7.21l-2.774-27.552c-0.547-5.449-1.734-9.542-3.557-12.271
						c-1.56-2.337-4.127-3.504-7.702-3.504c-0.604,0-1.236,0.033-1.898,0.1c-2.982,0.302-5.61,1.451-7.886,3.456
						c-2.273,2.001-3.829,4.593-4.665,7.774c-0.57,2.547-0.515,7.188,0.165,13.928l2.084,20.709c0.338,3.352-0.196,5.941-1.6,7.775
						c-1.406,1.83-3.353,2.877-5.847,3.125c-0.32,0.032-0.634,0.049-0.942,0.049c-2.011,0-3.766-0.686-5.264-2.053
						c-1.73-1.576-2.754-3.982-3.08-7.215l-4.809-47.771c-0.316-3.147,0.141-5.568,1.373-7.262c1.233-1.691,3.056-2.662,5.466-2.905
						c0.304-0.03,0.603-0.046,0.897-0.046c1.132,0,2.195,0.225,3.189,0.674c1.255,0.568,2.308,1.505,3.163,2.803
						c0.853,1.301,1.379,2.937,1.578,4.916l0.201,1.999c2.555-4.13,5.491-7.271,8.802-9.417c3.313-2.146,7.237-3.45,11.772-3.906
						C734.202,267.229,735.171,267.179,736.121,267.179 M736.121,264.179c-1.046,0-2.125,0.057-3.208,0.166
						c-4.988,0.501-9.396,1.973-13.102,4.373c-1.999,1.295-3.878,2.917-5.625,4.852c-0.24-0.521-0.512-1.014-0.816-1.478
						c-1.173-1.781-2.664-3.089-4.434-3.89c-1.385-0.625-2.873-0.941-4.426-0.941c-0.393,0-0.795,0.021-1.197,0.061
						c-3.239,0.327-5.863,1.753-7.591,4.123c-1.674,2.303-2.324,5.44-1.933,9.329l4.809,47.772c0.401,3.98,1.762,7.053,4.044,9.132
						c2.06,1.88,4.511,2.835,7.284,2.835c0.406,0,0.824-0.021,1.242-0.064c3.329-0.33,5.997-1.771,7.926-4.281
						c1.88-2.457,2.621-5.787,2.206-9.904l-2.084-20.709c-0.793-7.869-0.569-11.368-0.233-12.92c0.689-2.589,1.91-4.627,3.73-6.229
						c1.809-1.593,3.839-2.483,6.207-2.724c0.558-0.056,1.095-0.084,1.596-0.084c3.369,0,4.585,1.238,5.207,2.17
						c1.54,2.306,2.572,5.975,3.067,10.905l2.774,27.553c0.399,3.965,1.757,7.034,4.038,9.122c2.052,1.878,4.522,2.83,7.342,2.83
						c0.431,0,0.875-0.023,1.319-0.068c3.262-0.324,5.972-1.828,7.83-4.346c1.811-2.46,2.521-5.764,2.111-9.823l-3.096-30.759
						c-0.387-3.817-0.865-6.864-1.463-9.316c-0.641-2.63-1.72-5.071-3.207-7.258c-2.389-3.791-5.732-6.613-9.938-8.389
						C743.296,264.865,739.805,264.179,736.121,264.179L736.121,264.179z"/>
				</g>
				<g>
					<path fill="#13107A" d="M804.633,329.274c-8.717,0-16.045-2.413-21.782-7.173c-6.856-5.685-10.882-14.01-11.964-24.745
						c-0.506-5.035-0.212-9.853,0.873-14.319c1.094-4.506,2.986-8.527,5.622-11.954c2.644-3.436,6.088-6.245,10.239-8.35
						c4.118-2.084,8.833-3.405,14.015-3.928c1.518-0.153,3.017-0.23,4.455-0.23c4.977,0,9.537,0.927,13.552,2.754
						c5.183,2.356,9.287,5.732,12.196,10.033c2.891,4.272,4.598,8.826,5.073,13.535c0.477,4.748-0.695,8.064-3.484,9.857
						c-2.505,1.62-5.989,2.636-10.648,3.103l-31.177,3.139c0.492,2.87,1.448,5.402,2.851,7.544c1.613,2.459,3.622,4.255,5.969,5.337
						c1.886,0.869,3.912,1.311,6.02,1.311c0.525,0,1.066-0.027,1.606-0.081c1.865-0.19,3.553-0.58,5.012-1.156
						c1.474-0.579,2.891-1.4,4.215-2.445c1.376-1.083,2.657-2.248,3.809-3.465c1.135-1.196,2.636-2.855,4.589-5.072
						c1.083-1.123,2.596-1.765,4.544-1.959c0.35-0.036,0.695-0.055,1.03-0.055c1.639,0,3.083,0.435,4.292,1.29
						c1.521,1.084,2.399,2.715,2.617,4.851c0.178,1.788-0.275,3.814-1.383,6.2c-1.064,2.288-2.786,4.559-5.117,6.751
						c-2.315,2.183-5.331,4.118-8.961,5.752c-3.629,1.638-7.921,2.715-12.753,3.201
						C808.124,329.182,806.338,329.274,804.633,329.274z M804.292,273.261c-0.564,0-1.151,0.031-1.747,0.091
						c-3.775,0.381-6.652,1.927-8.797,4.725c-1.94,2.525-3.031,6.065-3.251,10.539l27.007-2.719
						c-0.984-4.423-2.693-7.698-5.09-9.753C810.151,274.204,807.495,273.261,804.292,273.261z"/>
					<path fill="#00FF00" d="M806.091,260.075c4.786,0,9.096,0.874,12.931,2.619c4.953,2.252,8.811,5.423,11.575,9.509
						c2.764,4.083,4.372,8.366,4.823,12.845c0.418,4.16-0.516,6.975-2.803,8.445c-2.286,1.479-5.615,2.434-9.986,2.872
						l-32.729,3.295c0.417,3.751,1.517,6.983,3.298,9.702c1.78,2.712,3.979,4.67,6.596,5.877c2.099,0.967,4.314,1.447,6.648,1.447
						c0.578,0,1.163-0.029,1.755-0.088c2-0.204,3.807-0.618,5.415-1.254c1.608-0.631,3.139-1.516,4.593-2.662
						c1.452-1.143,2.774-2.349,3.969-3.611c1.194-1.259,2.735-2.967,4.625-5.112c0.784-0.812,1.972-1.299,3.567-1.458
						c0.302-0.031,0.596-0.047,0.881-0.047c1.331,0,2.473,0.34,3.426,1.015c1.155,0.823,1.819,2.083,1.991,3.777
						c0.148,1.494-0.267,3.298-1.251,5.417c-0.984,2.115-2.579,4.217-4.784,6.29c-2.207,2.08-5.055,3.904-8.549,5.477
						c-3.495,1.577-7.592,2.604-12.289,3.077c-1.776,0.179-3.496,0.268-5.159,0.268c-8.396,0-15.336-2.274-20.824-6.827
						c-6.576-5.452-10.384-13.366-11.43-23.741c-0.491-4.882-0.212-9.492,0.838-13.814c1.05-4.324,2.836-8.122,5.353-11.395
						c2.518-3.271,5.761-5.914,9.728-7.926c3.965-2.007,8.462-3.267,13.487-3.773C803.261,260.149,804.696,260.075,806.091,260.075
						 M788.955,290.278l30.339-3.055c-0.977-5.609-2.948-9.685-5.905-12.219c-2.52-2.162-5.554-3.244-9.098-3.244
						c-0.617,0-1.25,0.033-1.897,0.099c-4.169,0.421-7.448,2.188-9.837,5.304C790.167,280.275,788.965,284.647,788.955,290.278
						 M806.091,257.075L806.091,257.075c-1.489,0-3.038,0.08-4.606,0.238c-5.367,0.541-10.259,1.914-14.541,4.081
						c-4.354,2.208-7.97,5.159-10.751,8.772c-2.765,3.595-4.747,7.806-5.891,12.517c-1.125,4.631-1.431,9.618-0.908,14.822
						c1.123,11.142,5.329,19.806,12.5,25.751c6.012,4.988,13.663,7.518,22.738,7.518c1.754,0,3.591-0.095,5.458-0.282
						c4.995-0.503,9.443-1.622,13.223-3.328c3.78-1.7,6.935-3.729,9.373-6.028c2.469-2.32,4.302-4.746,5.447-7.207
						c1.225-2.638,1.721-4.92,1.516-6.979c-0.328-3.226-1.94-5.001-3.235-5.924c-1.476-1.044-3.211-1.571-5.167-1.571
						c-0.386,0-0.786,0.021-1.188,0.063c-2.302,0.23-4.128,1.023-5.417,2.357l-0.048,0.05l-0.045,0.052
						c-1.94,2.203-3.429,3.849-4.551,5.031c-1.104,1.166-2.33,2.281-3.647,3.318c-1.211,0.955-2.5,1.703-3.833,2.227
						c-1.338,0.529-2.892,0.886-4.624,1.063c-0.484,0.048-0.974,0.072-1.45,0.072c-1.916,0-3.68-0.383-5.393-1.172
						c-2.117-0.977-3.865-2.546-5.343-4.799c-1.027-1.567-1.796-3.374-2.296-5.394l29.519-2.972
						c4.901-0.492,8.603-1.584,11.315-3.338c3.295-2.119,4.697-5.91,4.159-11.265c-0.5-4.96-2.291-9.746-5.323-14.227
						c-3.066-4.532-7.378-8.085-12.817-10.558C816.052,258.047,811.284,257.075,806.091,257.075L806.091,257.075z M792.131,286.943
						c0.368-3.336,1.307-6.002,2.805-7.953c1.881-2.453,4.418-3.809,7.759-4.146c0.546-0.056,1.083-0.084,1.596-0.084
						c2.83,0,5.167,0.825,7.145,2.521c1.849,1.584,3.251,4.031,4.187,7.296L792.131,286.943L792.131,286.943z"/>
				</g>
				<g>
					<path fill="#13107A" d="M870.79,322.68c-3.613,0-6.617-0.601-8.929-1.785c-3.194-1.622-5.465-4.133-6.745-7.46
						c-1.188-3.099-2.058-7.321-2.585-12.555l-3.043-30.234l-0.715,0.071c-0.518,0.053-1.024,0.079-1.503,0.079
						c-2.096,0-3.851-0.505-5.217-1.501c-1.731-1.254-2.722-2.992-2.941-5.164c-0.219-2.196,0.448-4.104,1.985-5.672
						c1.46-1.494,3.662-2.401,6.542-2.694l0.348-0.035l-0.85-8.434c-0.275-2.747-0.413-4.85-0.422-6.43
						c-0.013-1.745,0.305-3.318,0.945-4.675c0.632-1.406,1.652-2.632,3.022-3.617c1.375-0.984,2.965-1.571,4.727-1.746
						c0.331-0.034,0.662-0.051,0.99-0.051c2.138,0,4.176,0.715,6.057,2.124c1.503,1.124,2.545,2.6,3.096,4.384
						c0.494,1.598,0.876,3.788,1.168,6.695l0.984,9.766l4.637-0.468c0.507-0.051,1-0.076,1.467-0.076
						c2.066,0,3.799,0.495,5.152,1.471c1.719,1.251,2.698,2.982,2.915,5.15c0.279,2.78-0.719,4.976-2.888,6.346
						c-1.908,1.207-4.573,1.968-8.147,2.326l-1.633,0.166l2.91,28.898c0.252,2.505,0.536,4.437,0.843,5.74
						c0.255,1.079,0.697,1.888,1.351,2.472c0.431,0.384,1.128,0.579,2.068,0.579c0.255,0,0.524-0.015,0.806-0.042
						c0.884-0.093,2.109-0.381,3.636-0.856c1.773-0.552,3.137-0.868,4.172-0.97c0.212-0.021,0.43-0.032,0.646-0.032
						c1.506,0,2.936,0.535,4.248,1.593c1.511,1.225,2.376,2.846,2.575,4.822c0.227,2.25-0.372,5.463-4.509,7.986
						c-3.013,1.845-7.299,3.026-13.104,3.61C873.419,322.606,872.054,322.68,870.79,322.68z"/>
					<path fill="#00FF00" d="M856.397,232.277c1.813,0,3.533,0.606,5.158,1.824c1.25,0.935,2.104,2.14,2.562,3.626
						c0.458,1.482,0.829,3.615,1.109,6.402l1.135,11.259l6.129-0.618c0.458-0.045,0.896-0.068,1.316-0.068
						c1.754,0,3.178,0.396,4.274,1.188c1.358,0.988,2.126,2.347,2.299,4.083c0.223,2.22-0.509,3.862-2.196,4.929
						c-1.688,1.067-4.188,1.77-7.496,2.102l-3.126,0.316l3.06,30.391c0.26,2.587,0.553,4.564,0.876,5.935
						c0.325,1.374,0.928,2.457,1.812,3.246c0.72,0.64,1.743,0.96,3.068,0.96c0.303,0,0.621-0.017,0.955-0.05
						c0.981-0.103,2.291-0.405,3.933-0.917c1.64-0.51,2.931-0.816,3.871-0.908c0.168-0.018,0.335-0.025,0.501-0.025
						c1.162,0,2.265,0.422,3.307,1.261c1.189,0.964,1.865,2.228,2.023,3.804c0.268,2.662-0.997,4.849-3.797,6.557
						c-2.799,1.714-6.957,2.843-12.473,3.398c-1.385,0.14-2.688,0.21-3.908,0.21c-3.386,0-6.134-0.539-8.245-1.62
						c-2.872-1.459-4.881-3.682-6.029-6.664c-1.145-2.985-1.977-7.045-2.493-12.166l-3.193-31.727l-2.207,0.222
						c-0.471,0.048-0.922,0.071-1.354,0.071c-1.779,0-3.223-0.403-4.333-1.213c-1.381-1.001-2.158-2.372-2.333-4.104
						c-0.173-1.736,0.347-3.229,1.564-4.471c1.213-1.241,3.089-1.994,5.623-2.252l1.839-0.184l-1-9.928
						c-0.267-2.665-0.406-4.762-0.415-6.288c-0.011-1.529,0.257-2.871,0.802-4.026c0.539-1.197,1.387-2.208,2.542-3.04
						c1.155-0.826,2.487-1.32,3.999-1.471C855.838,232.292,856.119,232.277,856.397,232.277 M856.398,229.277L856.398,229.277
						c-0.378,0-0.763,0.02-1.144,0.058c-2.022,0.201-3.854,0.88-5.443,2.016c-1.585,1.143-2.767,2.562-3.521,4.225
						c-0.729,1.556-1.092,3.34-1.078,5.305c0.009,1.623,0.15,3.771,0.43,6.564l0.703,6.979c-2.696,0.445-4.818,1.447-6.325,2.989
						c-1.833,1.87-2.665,4.245-2.404,6.865c0.262,2.583,1.492,4.737,3.558,6.235c1.621,1.182,3.674,1.783,6.094,1.783
						c0.284,0,0.577-0.008,0.875-0.025l2.895,28.76c0.548,5.441,1.424,9.674,2.676,12.939c1.419,3.688,3.932,6.467,7.471,8.265
						c2.516,1.289,5.75,1.945,9.604,1.945c1.314,0,2.73-0.076,4.208-0.226c6.034-0.607,10.528-1.858,13.739-3.824
						c4.799-2.927,5.486-6.736,5.216-9.416c-0.236-2.354-1.315-4.372-3.119-5.834c-1.593-1.282-3.339-1.93-5.196-1.93
						c-0.267,0-0.538,0.014-0.806,0.041c-1.124,0.109-2.586,0.446-4.457,1.027c-1.787,0.557-2.81,0.741-3.354,0.799
						c-0.22,0.021-0.441,0.033-0.643,0.033c-0.668,0-0.99-0.127-1.075-0.202c-0.412-0.368-0.703-0.923-0.885-1.694
						c-0.292-1.238-0.565-3.104-0.811-5.545l-2.76-27.407l0.143-0.015c3.809-0.382,6.688-1.217,8.797-2.551
						c2.642-1.67,3.913-4.428,3.578-7.764c-0.257-2.573-1.474-4.721-3.519-6.209c-1.624-1.171-3.652-1.762-6.04-1.762
						c-0.517,0-1.059,0.028-1.613,0.083l-3.149,0.317l-0.834-8.273c-0.302-3.007-0.704-5.293-1.228-6.988
						c-0.646-2.092-1.867-3.822-3.631-5.142C861.208,230.093,858.867,229.277,856.398,229.277L856.398,229.277z"/>
				</g>
			</g>
		</g>
	</g>


</svg>
